<?xml version="1.0" encoding="utf-8"?>
<!-- Generator: Adobe Illustrator 28.3.0, SVG Export Plug-In . SVG Version: 6.00 Build 0)  -->
<svg version="1.1" id="Capa_4" xmlns="http://www.w3.org/2000/svg" xmlns:xlink="http://www.w3.org/1999/xlink" x="0px" y="0px"
	 viewBox="0 0 350 350" style="enable-background:new 0 0 350 350;" xml:space="preserve">
<style type="text/css">
	.st0{fill:#FEFEFE;}
</style>
<g>
	<path class="st0" d="M174.5,269.9c-13.3,0-25.4-5-34.5-13.3l-25.4,15.5c14.7,16.4,36,26.8,59.8,26.8c23.9,0,45.3-10.4,60-26.9
		l-25.4-15.5C200,264.8,187.8,269.9,174.5,269.9z"/>
	<path class="st0" d="M174.5,139.9c-19.3,0-37,6.8-50.8,18.1V50.6H94.5v165.5h0c0,1.1-0.1,2.2-0.1,3.3c0,2.4,0.1,4.9,0.3,7.2H124
		c-0.3-2.4-0.5-4.8-0.5-7.2c0-1.1,0-2.2,0.1-3.3h0.1v-1.2c2.3-25.7,24.2-46,50.8-46c28.1,0,51,22.6,51,50.5c0,2.5-0.2,4.9-0.5,7.2
		h29.2c0.2-2.4,0.3-4.8,0.3-7.2C254.5,175.6,218.6,139.9,174.5,139.9z"/>
</g>
</svg>
