<svg width="80" height="92" viewBox="0 0 80 92" fill="none" xmlns="http://www.w3.org/2000/svg">
<path fill-rule="evenodd" clip-rule="evenodd" d="M71.6381 31.3289C71.5383 31.3023 71.4518 31.2359 71.4118 31.1429C68.9688 24.9834 63.0711 21.402 53.4124 25.0565C53.2127 25.1296 52.9997 24.9834 52.9997 24.7708C53.053 17.3754 48.5265 8.03324 47.6811 3.12294C47.6278 2.81065 47.1952 2.77742 47.0887 3.06978C45.5843 7.17609 44.5525 9.84054 44.0932 13.6744C43.6605 17.289 44.872 17.7276 43.7071 20.618C41.2708 26.9967 45.6575 29.907 42.9616 30.4651C42.003 30.6445 38.4285 25.0366 29.6351 22.3389C29.6151 22.3389 29.5952 22.3256 29.5752 22.3123C22.6524 18.4253 21.0881 14.8638 16.1356 12.5183C10.1047 9.6545 4.9991 4.91031 1.21816 0.205994C0.838739 -0.272411 0.0865452 0.159483 0.306212 0.730911C0.945244 2.37211 11.0167 24.9635 12.9071 28.7442C16.4418 35.8073 16.3685 35.2027 19.5304 39.5216C23.2581 44.6246 27.7912 48.5781 28.1573 48.804C28.2838 48.8837 28.3371 49.0498 28.2705 49.1894C26.9991 52.093 25.8475 53.6744 24.5894 56.6379C22.253 62.1196 21.8203 65.1894 19.8965 68.691C15.876 76.1728 7.76824 84.8306 0.106515 91.4618C-0.173061 91.701 0.133141 92.1395 0.452657 91.9601C16.4484 83.3488 18.5053 76.6113 22.02 75.5415C22.1997 75.4884 22.4194 75.608 22.4061 75.794C22.2197 78.3322 22.0133 79.5814 21.2212 81.6412C21.0881 81.9801 21.4675 82.2658 21.7138 82C25.8875 77.4884 31.2793 70.5382 35.6993 67.5283C38.5749 65.5681 40.8182 65.3954 43.8336 64.0798C61.3337 56.4784 54.8369 48.3123 62.8714 40.2126C65.98 37.0764 66.7189 37.6611 71.0923 35.1163C71.1389 35.0897 71.1921 35.0831 71.2454 35.0764C72.6366 34.8372 76.138 34.1927 79.5928 33.5615C79.5928 33.5615 74.78 32.2591 71.6115 31.3356L71.6381 31.3289Z" fill="#656A76"/>
</svg>
