<?xml version="1.0" encoding="utf-8"?>
<!-- Generator: Adobe Illustrator 26.2.1, SVG Export Plug-In . SVG Version: 6.00 Build 0)  -->
<svg version="1.1" id="Layer_1" xmlns="http://www.w3.org/2000/svg" xmlns:xlink="http://www.w3.org/1999/xlink" x="0px" y="0px"
	 viewBox="0 0 1080 162.4" style="enable-background:new 0 0 1080 162.4;" xml:space="preserve">
<style type="text/css">
	.st0{fill:#484B65;}
	.st1{fill-rule:evenodd;clip-rule:evenodd;fill:#484B65;}
	.st2{fill:#50545D;}
</style>
<g>
	<g>
		<path class="st0" d="M0,119.8c8.7,0,12.7-2.1,12.7-10.7V37.2c0-9.9-6.4-10.8-12.6-10.8v-5h45.7C79.5,21.3,99,43.8,99,73
			c0,29-20.1,52.1-53.1,52.1H0V119.8z M45.9,119.3c22.4,0,35.4-19.7,35.4-46.3c0-26.8-12.1-45.9-35.4-45.9H28.4v84.5
			c0,5.3,2.7,7.7,7.8,7.7H45.9z"/>
		<path class="st0" d="M130.9,36.9c0-10.2-6.5-10.5-12.6-10.5v-5H192c4.6,0,5.9,1.5,5.9,5.6v22.4h-5.3c0-13-4.4-22.1-17.5-22.1
			h-28.6v38.3h10.7c14.2,0,13.3-11.3,13.3-15.1h5.9v36.1h-5.9c0-5.2,0.6-15.5-13.3-15.5h-10.7v40.6c0,5,2.7,7.5,7.4,7.5h17.8
			c21.9,0,25.6-7.8,25.6-23.8h5.6v22.4c0,5.5-1.2,7.4-7.1,7.4h-77.7v-5.3c5.6,0,12.7-0.9,12.7-12.3V36.9z"/>
		<path class="st0" d="M265.4,125.1l-32.1-85.4c-3.3-8.4-4.6-13.3-16.3-13.3v-5h17.6c8.3,0,11.8,7.5,15.1,16l23.4,63.2L297,37
			c3.4-9-6.1-10.7-10.1-10.7v-5h31.7v5c-6.4,0-11,1.9-14.7,11.4l-33,87.3H265.4z"/>
		<path class="st0" d="M340.6,125.1h-31.7v-5.3c4.9,0,9.8,0.6,13.5-8.9l35.1-89.6h5.5l32.4,86c3.3,8.9,6.7,12.4,15.8,12.4v5.3h-43.4
			v-5.3c7.7,0,15.7-2.1,11.8-12l-5.8-15h-37.6l-7.3,18.8c-3.6,8.7,7.5,8.1,11.5,8.1V125.1z M355.4,44.1l-16.7,42.8h33L355.4,44.1z"
			/>
		<path class="st0" d="M428.7,125.1v-5.3c6.8,0,12.7-1.3,12.7-9.5V35.2c0-8.1-5.8-8.9-12.7-8.9v-5h45.6c22.1,0,32.1,11.4,32.1,25.2
			c0,9.9-6.2,22.6-24.6,25.3c20.6,6.2,15.2,47.8,35.8,47.8v5.5h-7.8c-9,0-12.7-1.6-16.3-4.9c-12-11.1-11.8-46.8-32.9-46.8H457v36
			c0,8.4,5.6,10.2,13,10.2v5.5H428.7z M457,68.4h10.5c17.3,0,23.1-13.2,23.1-22.1c0-10.5-7.1-20-19.8-20H457V68.4z"/>
		<path class="st0" d="M566.7,125.1H535v-5.3c4.9,0,9.8,0.6,13.5-8.9l35.1-89.6h5.5l32.4,86c3.3,8.9,6.7,12.4,15.8,12.4v5.3h-43.4
			v-5.3c7.7,0,15.7-2.1,11.8-12l-5.8-15h-37.6l-7.3,18.8c-3.6,8.7,7.5,8.1,11.5,8.1V125.1z M581.5,44.1l-16.7,42.8h33L581.5,44.1z"
			/>
		<path class="st0" d="M688.2,125.1h-33.3v-5.3c8.3,0,13-0.4,13-11.3V37.2c0-8.9-5.3-10.8-12.9-10.8v-5h17.3
			c5.3,0,10.1,2.1,14.2,7.7l49.6,67.5V37.2c0-9.8-4.9-10.8-12.9-10.8v-5h32.4v5c-7.3,0-12.4,0.9-12.4,11.1v87.6h-5.2L675,40v68.5
			c0,11,5.2,11.1,13.2,11.1V125.1z"/>
		<path class="st0" d="M796.4,125.1h-31.7v-5.3c4.9,0,9.8,0.6,13.5-8.9l35.1-89.6h5.5l32.4,86c3.3,8.9,6.7,12.4,15.8,12.4v5.3h-43.4
			v-5.3c7.7,0,15.7-2.1,11.8-12l-5.8-15h-37.6l-7.3,18.8c-3.6,8.7,7.5,8.1,11.5,8.1V125.1z M811.2,44.1l-16.7,42.8h33L811.2,44.1z"
			/>
	</g>
	<g>
		<g>
			<g>
				<g>
					<g>
						<path class="st1" d="M1051.2,55.3c-0.2-0.1-0.3-0.2-0.4-0.3c-4.3-10.9-14.7-17.2-31.7-10.7c-0.4,0.1-0.7-0.1-0.7-0.5
							c0.1-13.1-7.9-29.5-9.4-38.2c-0.1-0.5-0.9-0.6-1-0.1c-2.7,7.2-4.5,12-5.3,18.7c-0.8,6.4,1.4,7.2-0.7,12.3
							c-4.3,11.3,3.4,16.4-1.3,17.4c-1.7,0.3-8-9.6-23.5-14.3c0,0-0.1,0-0.1,0c-12.2-6.9-15-13.2-23.7-17.3
							c-10.6-5-19.6-13.4-26.3-21.7c-0.7-0.8-2-0.1-1.6,0.9c1.1,2.9,18.9,42.8,22.2,49.4c6.2,12.5,6.1,11.4,11.7,19
							c6.6,9,14.6,16,15.2,16.4c0.2,0.1,0.3,0.4,0.2,0.7c-2.2,5.1-4.3,7.9-6.5,13.1c-4.1,9.7-4.9,15.1-8.3,21.3
							c-7.1,13.2-21.4,28.5-34.9,40.2c-0.5,0.4,0,1.2,0.6,0.9c28.2-15.2,31.8-27.1,38-29c0.3-0.1,0.7,0.1,0.7,0.4
							c-0.3,4.5-0.7,6.7-2.1,10.3c-0.2,0.6,0.4,1.1,0.9,0.6c7.4-8,16.8-20.2,24.6-25.5c5.1-3.5,9-3.8,14.3-6.1
							c30.8-13.4,19.4-27.8,33.5-42.1c5.5-5.5,6.8-4.5,14.5-9c0.1,0,0.2-0.1,0.3-0.1c2.5-0.4,8.6-1.6,14.7-2.7
							C1065.2,59.2,1056.7,56.9,1051.2,55.3z"/>
					</g>
				</g>
			</g>
		</g>
	</g>
	<path class="st2" d="M1080,13.5c0,5.9-4.5,10.8-10.4,10.8c-5.8,0-10.3-4.9-10.3-10.7s4.5-10.8,10.3-10.8
		C1075.5,2.8,1080,7.6,1080,13.5z M1078.3,13.5c0-4.8-3.7-8.8-8.6-8.8c-4.9,0-8.6,4.1-8.6,8.9s3.7,8.8,8.5,8.8
		C1074.5,22.4,1078.3,18.4,1078.3,13.5z M1071.9,15l2.4,3.6h-2l-1.9-3.2h-0.5h-2.4v3.2h-1.7V7.9h4.1c2.7,0,4.2,1.3,4.2,3.7
		C1074.1,13.2,1073.3,14.4,1071.9,15z M1069.9,13.8c1.6,0,2.5-0.8,2.5-2.2c0-1.4-0.9-2.2-2.5-2.2h-2.4v4.4H1069.9z"/>
</g>
</svg>
