<svg width="96" height="112" viewBox="0 0 96 112" fill="none" xmlns="http://www.w3.org/2000/svg">
<g clip-path="url(#clip0_182_259)">
<path fill-rule="evenodd" clip-rule="evenodd" d="M86.382 38.1395C86.2576 38.1036 86.1509 38.032 86.1153 37.9066C83.1642 30.4005 76.0531 26.0473 64.4087 30.4901C64.1598 30.5797 63.9109 30.4005 63.9109 30.1318C63.982 21.1209 58.5242 9.74536 57.4931 3.77991C57.422 3.40371 56.9065 3.34997 56.782 3.70825C54.9687 8.70633 53.7242 11.9488 53.1731 16.6244C52.6576 21.0313 54.1153 21.5509 52.7109 25.08C49.7776 32.8368 55.0576 36.3839 51.8042 37.0646C50.6487 37.2796 46.3287 30.4543 35.7331 27.1759C35.7153 27.1759 35.6798 27.158 35.662 27.1401C27.3065 22.4107 25.422 18.0755 19.4487 15.2092C12.1776 11.7518 6.02645 5.98336 1.47534 0.250797C1.01312 -0.322459 0.106452 0.197054 0.373119 0.877796C1.13756 2.86628 13.2976 30.3826 15.5731 34.9866C19.8398 43.5854 19.7509 42.8509 23.5553 48.0998C28.0531 54.3161 33.5287 59.1171 33.9553 59.4037C34.1153 59.4933 34.1687 59.7082 34.0976 59.8695C32.5687 63.3986 31.182 65.3333 29.6531 68.9341C26.8442 75.6161 26.3109 79.3423 23.9998 83.6059C19.1465 92.7242 9.36867 103.258 0.142008 111.337C-0.19577 111.624 0.177563 112.161 0.568674 111.946C19.8576 101.466 22.3465 93.2617 26.5776 91.9539C26.7909 91.8823 27.0576 92.0256 27.0398 92.2585C26.8265 95.3397 26.5598 96.8624 25.6176 99.3704C25.4576 99.7825 25.9198 100.123 26.222 99.8004C31.2531 94.3007 37.7598 85.8452 43.0931 82.1727C46.5598 79.7901 49.262 79.5752 52.9065 77.9808C74.0087 68.7191 66.1687 58.7767 75.8753 48.9239C79.6264 45.1081 80.5153 45.8247 85.7953 42.7255C85.8487 42.6897 85.9198 42.6897 85.9731 42.6718C87.6442 42.3852 91.8753 41.5969 96.0353 40.8266C96.0353 40.8266 90.222 39.2322 86.4176 38.1216L86.382 38.1395Z" fill="#FABCAB" fill-opacity="0.1"/>
</g>
<defs>
<clipPath id="clip0_182_259">
<rect width="96" height="112" fill="white"/>
</clipPath>
</defs>
</svg>
