<svg width="115" height="134" viewBox="0 0 115 134" fill="none" xmlns="http://www.w3.org/2000/svg">
<g clip-path="url(#clip0_184_813)">
<path d="M68.1505 42.9601C66.4334 42.9601 64.6003 43.0531 62.6743 43.2626V52.9437L76.5968 44.0538C74.9957 43.5419 72.2809 42.9833 68.1505 42.9833V42.9601Z" fill="#FABCAB" fill-opacity="0.1"/>
<path d="M114.791 48.5686C111.984 42.9601 104.535 32.5109 87.3871 30.2536C86.807 36.3508 85.6932 41.7034 85.6468 41.9361C85.4147 43.0997 84.8114 44.1702 83.9065 44.8684C83.9065 44.8684 83.6744 45.0778 83.5352 45.1709L68.29 54.9218C74.6712 52.9437 85.902 50.1976 98.5947 50.1976C103.143 50.1976 107.9 50.5467 112.703 51.4311C112.819 51.4311 112.958 51.4543 113.074 51.4543C114.49 51.4543 115.487 49.9416 114.814 48.5919L114.791 48.5686Z" fill="#FABCAB" fill-opacity="0.1"/>
<path d="M68.1506 38.3057C77.5483 38.3057 81.0753 40.9819 81.0753 40.9819C81.0753 40.9819 82.1659 35.769 82.7461 29.8579C82.8157 29.09 82.8853 28.322 82.9317 27.5307C82.9781 26.7395 83.0245 25.9715 83.0477 25.2035C83.2101 20.5491 82.7925 16.1973 81.0753 14.3123C76.9914 9.91386 69.8677 7.35394 61.3518 7.35394C54.3441 7.35394 46.3851 9.09934 38.4028 12.9625V44.24C46.153 41.587 52.627 40.0045 58.0104 39.1667C58.8225 39.0271 59.5883 38.934 60.3308 38.8409C61.1429 38.7478 61.9087 38.6547 62.6512 38.5849C64.67 38.3987 66.4799 38.3057 68.1274 38.3057H68.1506Z" fill="#FABCAB" fill-opacity="0.1"/>
<path d="M49.5179 119.711C46.5478 117.849 42.7887 116.499 38.4263 115.708C37.5445 115.545 36.6164 115.406 35.6882 115.313C34.8064 115.196 33.8783 115.126 32.9501 115.057V5.09656C32.9501 2.39701 30.8617 0.0930879 28.17 0C28.1004 0 28.054 0 27.9844 0C25.2463 0 23.0419 2.23411 23.0419 4.9802V115.196C22.1137 115.289 21.1856 115.382 20.3038 115.522C19.3757 115.662 18.4475 115.801 17.5657 115.987C13.621 116.779 10.21 118.059 7.49511 119.734C2.62223 122.736 -0.0230528 127.135 0.000151368 132.092C0.000151368 133.139 0.858706 134 1.9261 134H55.1101C56.1775 134 57.0361 133.139 57.0361 132.068C57.0361 132.022 57.0361 131.952 57.0361 131.906C56.9432 127.042 54.298 122.736 49.5411 119.734L49.5179 119.711Z" fill="#FABCAB" fill-opacity="0.1"/>
</g>
<defs>
<clipPath id="clip0_184_813">
<rect width="115" height="134" fill="white"/>
</clipPath>
</defs>
</svg>
