<svg width="543" height="65" viewBox="0 0 543 65" fill="none" xmlns="http://www.w3.org/2000/svg">
<g clip-path="url(#clip0_182_262)">
<path d="M0 61.6646C5.46579 61.6646 7.97094 60.3629 7.97094 54.9937V9.92491C7.97094 3.70964 3.98547 3.15645 0.0976034 3.15645V0H28.7442C49.794 0 62.0269 14.0901 62.0269 32.3617C62.0269 50.6333 49.4198 65 28.7442 65H0V61.6646ZM28.7442 61.388C42.7503 61.388 50.9002 49.0551 50.9002 32.3617C50.9002 15.6683 43.3034 3.61201 28.7442 3.61201H17.7963V56.572C17.7963 59.9074 19.4719 61.388 22.709 61.388H28.7279H28.7442Z" fill="#FABCAB" fill-opacity="0.1"/>
<path d="M81.9543 9.72966C81.9543 3.33542 77.8713 3.14017 74.081 3.14017V0H120.247C123.127 0 123.956 0.927409 123.956 3.53066V17.5232H120.622C120.622 9.35544 117.84 3.70964 109.674 3.70964H91.7797V27.7247H98.4493C107.347 27.7247 106.794 20.6796 106.794 18.2716H110.503V40.9036H106.794C106.794 37.6658 107.169 31.174 98.4493 31.174H91.7797V56.5882C91.7797 59.7447 93.4553 61.3229 96.4159 61.3229H107.543C121.256 61.3229 123.582 56.4093 123.582 46.3867H127.112V60.3955C127.112 63.8285 126.364 65.0325 122.655 65.0325H73.9834V61.6971C77.5134 61.6971 81.9543 61.1439 81.9543 54.0012V9.72966Z" fill="#FABCAB" fill-opacity="0.1"/>
<path d="M166.235 65L146.112 11.5031C144.079 6.21527 143.233 3.15645 135.913 3.15645V0H146.942C152.131 0 154.36 4.73467 156.393 10.0225L171.034 49.6245L185.967 9.84355C188.098 4.18148 182.16 3.17272 179.655 3.17272V0H199.501V3.15645C195.516 3.15645 192.636 4.36045 190.326 10.2991L169.651 65.0163H166.218L166.235 65Z" fill="#FABCAB" fill-opacity="0.1"/>
<path d="M213.328 65H193.482V61.6646C196.541 61.6646 199.599 62.0388 201.925 56.1001L223.902 0H227.335L247.636 53.8711C249.669 59.4355 251.8 61.6646 257.559 61.6646V65H230.393V61.6646C235.208 61.6646 240.218 60.3629 237.811 54.1477L234.199 44.776H210.644L206.106 56.5557C203.877 62.0225 210.84 61.6483 213.345 61.6483V64.9837L213.328 65ZM222.601 14.2854L212.125 41.0826H232.8L222.601 14.2854Z" fill="#FABCAB" fill-opacity="0.1"/>
<path d="M268.491 65V61.6646C272.753 61.6646 276.462 60.8348 276.462 55.7259V8.7209C276.462 3.62829 272.85 3.15645 268.491 3.15645V0H297.04C310.851 0 317.162 7.14268 317.162 15.766C317.162 21.9812 313.274 29.9537 301.773 31.6295C314.657 35.5181 311.322 61.5832 324.206 61.5832V65.0163H319.293C313.632 65.0163 311.322 63.9912 309.094 61.9574C301.578 55.01 301.676 32.6546 288.516 32.6546H286.206V55.189C286.206 60.4768 289.736 61.5832 294.372 61.5832V65.0163H268.507L268.491 65ZM286.206 29.4819H292.794C303.644 29.4819 307.256 21.2328 307.256 15.6683C307.256 9.07885 302.798 3.15645 294.827 3.15645H286.206V29.4819Z" fill="#FABCAB" fill-opacity="0.1"/>
<path d="M354.902 65H335.056V61.6646C338.114 61.6646 341.173 62.0388 343.499 56.1001L365.46 0H368.892L389.193 53.8711C391.227 59.4355 393.358 61.6646 399.117 61.6646V65H371.95V61.6646C376.765 61.6646 381.776 60.3629 379.368 54.1477L375.757 44.776H352.202L347.663 56.5557C345.435 62.0225 352.397 61.6483 354.902 61.6483V64.9837V65ZM364.174 14.2854L353.698 41.0826H374.374L364.174 14.2854Z" fill="#FABCAB" fill-opacity="0.1"/>
<path d="M431.016 65H410.162V61.6646C415.351 61.6646 418.328 61.388 418.328 54.6195V9.92491C418.328 4.36045 414.993 3.15645 410.259 3.15645V0H421.109C424.444 0 427.421 1.30163 430.008 4.81602L461.062 47.1026V9.92491C461.062 3.80726 458.004 3.15645 452.993 3.15645V0H473.295V3.15645C468.756 3.15645 465.503 3.70964 465.503 10.1039V65H462.266L422.769 11.6821V54.6195C422.769 61.4856 426.006 61.567 431.016 61.567V65Z" fill="#FABCAB" fill-opacity="0.1"/>
<path d="M498.785 65H478.939V61.6646C481.998 61.6646 485.056 62.0388 487.382 56.1001L509.359 0H512.792L533.093 53.8711C535.126 59.4355 537.257 61.6646 543.016 61.6646V65H515.85V61.6646C520.665 61.6646 525.675 60.3629 523.268 54.1477L519.656 44.776H496.101L491.563 56.5557C489.334 62.0225 496.297 61.6483 498.802 61.6483V64.9837L498.785 65ZM508.058 14.2854L497.582 41.0826H518.257L508.058 14.2854Z" fill="#FABCAB" fill-opacity="0.1"/>
</g>
<defs>
<clipPath id="clip0_182_262">
<rect width="543" height="65" fill="white"/>
</clipPath>
</defs>
</svg>
