<svg width="134" height="134" viewBox="0 0 134 134" fill="none" xmlns="http://www.w3.org/2000/svg">
<g clip-path="url(#clip0_184_820)">
<path d="M83.9361 34.4571L84.8368 33.5575C78.3012 29.708 70.6973 27.5113 62.5698 27.5113C38.2918 27.5113 18.5176 47.24 18.5176 71.5085C18.5176 95.777 38.2709 115.506 62.5698 115.506C86.8687 115.506 106.622 95.777 106.622 71.5085C106.622 63.3911 104.423 55.7967 100.568 49.2693L99.6675 50.1689L94.2002 55.6293L93.2786 56.5499C95.499 61.0688 96.7349 66.1527 96.7349 71.5085C96.7349 90.3166 81.4014 105.631 62.5698 105.631C43.7382 105.631 28.4047 90.3166 28.4047 71.5085C28.4047 52.7004 43.7382 37.3861 62.5698 37.3861C67.9323 37.3861 73.0225 38.6204 77.5471 40.8381L83.9361 34.4571Z" fill="#FABCAB" fill-opacity="0.1"/>
<path d="M61.8786 56.4871L70.4879 47.8885C67.9952 47.0517 65.3349 46.5914 62.5698 46.5914C48.8075 46.5914 37.6216 57.7633 37.6216 71.5085C37.6216 85.2537 48.8075 96.4256 62.5698 96.4256C76.3322 96.4256 87.5181 85.2537 87.5181 71.5085C87.5181 68.7469 87.0573 66.069 86.2194 63.5794L77.61 72.178C77.2539 80.1489 70.6346 86.5299 62.5698 86.5299C54.5051 86.5299 47.5087 79.7724 47.5087 71.4876C47.5087 63.2028 53.8977 56.8219 61.8786 56.4662V56.4871Z" fill="#FABCAB" fill-opacity="0.1"/>
<path d="M106.831 43.0139C112.152 51.2359 115.252 61.027 115.252 71.5294C115.252 100.547 91.6236 124.146 62.5696 124.146C33.5157 124.146 9.88713 100.526 9.88713 71.5085C9.88713 42.4909 33.5157 18.8918 62.5696 18.8918C73.0852 18.8918 82.8676 21.9881 91.0999 27.3021L98.2429 20.168C87.8531 12.9293 75.4941 9.01702 62.5487 9.01702C45.8327 9.01702 30.1222 15.5235 18.308 27.323C6.51462 39.1226 0 54.8134 0 71.5085C0 88.2036 6.51462 103.894 18.3289 115.694C30.1432 127.494 45.8537 134 62.5696 134C79.2856 134 94.9961 127.494 106.81 115.694C118.625 103.894 125.139 88.2036 125.139 71.5085C125.139 58.5792 121.243 46.2567 113.974 35.8589L106.831 42.993V43.0139Z" fill="#FABCAB" fill-opacity="0.1"/>
<path d="M133.874 11.0673C133.56 10.1677 132.764 9.54005 131.821 9.43544L125.391 8.72412L124.574 2.15488C124.448 1.21343 123.819 0.439344 122.919 0.125526C122.395 -0.0627641 121.829 -0.041843 121.327 0.125526C120.971 0.251053 120.635 0.439344 120.363 0.73224L118.52 2.5733L108.256 12.8247C107.711 13.3686 107.46 14.1009 107.543 14.854L108.235 20.691L104.129 24.7916L97.1116 31.8002L90.995 37.9091L90.1152 38.7878L84.8574 44.039L83.9777 44.9177L77.4211 51.487L70.2991 58.6002L64.2453 64.6464C63.7216 64.5208 63.156 64.4581 62.5904 64.4581C60.2025 64.4581 58.0658 65.6506 56.788 67.4707C55.9711 68.6214 55.5103 70.0231 55.5103 71.5294C55.5103 75.3162 58.5057 78.4334 62.2762 78.6008C62.381 78.6008 62.4857 78.6008 62.5904 78.6008C66.5076 78.6008 69.6706 75.4207 69.6706 71.5294C69.6706 70.9646 69.6078 70.4206 69.4821 69.8767L102.369 37.0304L109.387 30.0219L113.618 25.7958L119.148 26.4443C119.148 26.4443 119.337 26.4443 119.441 26.4443C120.091 26.4443 120.719 26.1933 121.18 25.7121L133.288 13.6197C133.958 12.9502 134.188 11.946 133.874 11.0673Z" fill="#FABCAB" fill-opacity="0.1"/>
</g>
<defs>
<clipPath id="clip0_184_820">
<rect width="134" height="134" fill="white"/>
</clipPath>
</defs>
</svg>
