<svg width="111" height="134" viewBox="0 0 111 134" fill="none" xmlns="http://www.w3.org/2000/svg">
<path d="M110.978 46.9327C110.978 33.8813 105.901 21.9193 96.7018 13.2475C87.6326 4.70634 75.374 0 62.1391 0C46.3005 0 33.1524 4.7935 24.1266 13.8793C15.1659 22.8998 10.4143 35.9948 10.3492 51.7698L0.412154 80.5525C-0.303835 82.3828 -0.086869 84.4745 1.01966 86.1086C2.12619 87.7645 3.9921 88.745 5.96649 88.745H14.8621L18.0298 109.422C18.7241 113.954 22.5427 117.245 27.099 117.245H40.3557L40.3991 132.192C40.3991 133.194 41.2018 133.978 42.1999 133.978H85.962C86.895 133.978 87.676 133.237 87.7411 132.3L89.0212 114.063C89.5636 106.241 92.5361 98.7678 97.5914 92.4709C105.207 82.971 108.44 71.0963 109.807 62.773C111.239 54.1011 111.022 47.5646 110.978 46.9109V46.9327ZM60.9241 16.4286C62.3344 16.4286 63.4843 17.5834 63.4843 18.9997V23.0741C63.4843 24.4904 62.3344 25.6452 60.9241 25.6452C59.5138 25.6452 58.3639 24.4904 58.3639 23.0741V18.9997C58.3639 17.5834 59.5138 16.4286 60.9241 16.4286ZM30.6139 40.2436C30.9176 38.8491 32.2845 37.9776 33.6514 38.2826L37.687 39.1541C39.0756 39.4592 39.9434 40.8319 39.6397 42.2046C39.3793 43.4029 38.3162 44.2309 37.1446 44.2309C36.971 44.2309 36.7757 44.2309 36.6021 44.1655L32.5666 43.294C31.178 42.9889 30.3101 41.6163 30.6139 40.2436ZM33.326 56.694L37.2097 55.1906C38.5331 54.6894 40.0085 55.3431 40.5292 56.6504C41.0283 57.9795 40.3774 59.4611 39.0539 59.9841L35.1702 61.4875C34.8664 61.5964 34.5627 61.6618 34.2589 61.6618C33.2392 61.6618 32.2628 61.0299 31.8723 60.0059C31.3733 58.6767 32.0242 57.1951 33.326 56.6722V56.694ZM40.4208 27.9766C39.4227 26.9743 39.401 25.3619 40.3991 24.3379C41.3971 23.3356 43.0027 23.3138 44.0224 24.3161L46.843 27.1268C47.841 28.1291 47.8627 29.7415 46.8647 30.7655C46.3656 31.2667 45.7147 31.5281 45.0421 31.5281C44.3695 31.5281 43.7403 31.2885 43.2413 30.7873L40.4208 27.9766ZM48.6655 35.1015C51.92 31.855 56.1725 30.0683 60.6854 30.0683H60.8807C70.1885 30.1772 77.739 37.8686 77.739 47.2159C77.739 50.7021 76.6975 54.0576 74.7448 56.9119C72.228 60.5941 70.6659 63.7099 70.6659 67.8715C70.6659 69.2878 69.5159 70.4426 68.1057 70.4426H53.2218C52.5492 70.4426 51.8983 70.1811 51.421 69.68C50.9436 69.2006 50.6616 68.547 50.6616 67.8715C50.6616 63.7317 49.1428 60.7031 46.5392 56.8683C44.5865 54.014 43.5668 50.6585 43.5885 47.1941C43.5885 42.6621 45.3893 38.3698 48.6438 35.1233L48.6655 35.1015ZM75.0052 27.105L77.8258 24.2943C78.8238 23.292 80.4511 23.3138 81.4491 24.3161C82.4472 25.3184 82.4254 26.9525 81.4274 27.9548L78.6068 30.7655C78.1078 31.2667 77.4569 31.5063 76.806 31.5063C76.1551 31.5063 75.4825 31.2449 74.9835 30.7437C73.9855 29.7415 74.0072 28.1073 75.0052 27.105ZM54.2632 80.2039C52.8529 80.2039 51.703 79.0491 51.703 77.6328C51.703 76.2166 52.8529 75.0618 54.2632 75.0618H67.0859C68.4962 75.0618 69.6461 76.2166 69.6461 77.6328C69.6461 79.0491 68.4962 80.2039 67.0859 80.2039H54.2632ZM66.9557 85.6075C66.9557 87.0237 65.8058 88.1785 64.3955 88.1785H56.9536C55.5433 88.1785 54.3934 87.0237 54.3934 85.6075C54.3934 84.1912 55.5433 83.0364 56.9536 83.0364H64.3955C65.8058 83.0364 66.9557 84.1912 66.9557 85.6075ZM82.6424 59.9623C81.3189 59.4611 80.668 57.9577 81.1887 56.6286C81.6878 55.2995 83.1848 54.6458 84.5083 55.1688L88.392 56.6722C89.7155 57.1733 90.3664 58.6767 89.8457 60.0059C89.4552 61.0299 88.4788 61.6618 87.4591 61.6618C87.1553 61.6618 86.8299 61.5964 86.5478 61.4875L82.6641 59.9841L82.6424 59.9623ZM89.2816 43.294L85.246 44.1655C85.0724 44.2091 84.8772 44.2309 84.7036 44.2309C83.532 44.2309 82.4688 43.4029 82.2085 42.2046C81.9047 40.8101 82.7943 39.4592 84.1612 39.1541L88.1968 38.2826C89.5853 37.9776 90.9305 38.8709 91.2343 40.2436C91.538 41.638 90.6485 43.0107 89.2816 43.294Z" fill="#FABCAB" fill-opacity="0.1"/>
</svg>
