<svg width="332" height="332" viewBox="0 0 332 332" fill="none" xmlns="http://www.w3.org/2000/svg">
<path fill-rule="evenodd" clip-rule="evenodd" d="M104.45 93.0722C106.525 94.6683 111.267 97.9744 118.449 101.349C115.69 105.932 113.068 111.244 110.766 117.172H114.573C116.739 111.883 119.156 107.072 121.755 102.831C131.947 107.186 146.221 111.199 164.256 111.45V117.172H167.744V111.45C185.848 111.199 200.144 107.14 210.359 102.785C212.912 106.981 215.329 111.814 217.495 117.172H221.189C218.886 111.336 216.287 106.046 213.46 101.394C220.687 97.9972 225.453 94.6683 227.55 93.0722C235.622 99.8896 242.53 108.052 247.98 117.172H251.97C236.876 90.7694 210.039 71.9132 178.575 67.9003H178.529C174.425 67.3759 170.275 67.0111 166.011 67.0111C161.748 67.0111 157.621 67.3759 153.494 67.9003H153.426C121.961 71.9132 95.1015 90.7922 80.0303 117.195H84.0204C89.4697 108.075 96.3783 99.9124 104.45 93.095V93.0722ZM224.7 90.815C222.443 92.4566 217.997 95.3751 211.522 98.362C203.131 85.6392 193.555 77.4994 186.874 72.8481C200.896 75.9946 213.733 82.2419 224.7 90.815ZM167.721 70.568C171.028 70.6364 174.288 70.8644 177.503 71.252C179.692 72.3009 191.001 78.1834 202.059 91.2482C204.134 93.7107 206.3 96.5379 208.398 99.73C198.548 103.88 184.845 107.733 167.721 107.984V70.5908V70.568ZM154.474 71.252C157.689 70.8644 160.95 70.6364 164.256 70.568V107.961C147.201 107.71 133.543 103.903 123.693 99.7756C136.462 80.6459 151.898 72.5061 154.474 71.252ZM144.898 72.9165C140.042 76.2682 133.726 81.4211 127.41 88.8769C125.107 91.5902 122.713 94.7595 120.365 98.3392C113.958 95.3523 109.534 92.4794 107.3 90.8378C118.199 82.3103 130.967 76.0858 144.898 72.9393V72.9165Z" fill="#56739B" fill-opacity="0.1"/>
<path fill-rule="evenodd" clip-rule="evenodd" d="M91.1343 45.8977C94.1667 43.9597 94.714 41.2008 92.8215 38.2595C91.1799 35.6602 88.649 34.9534 85.6621 36.8687C84.9325 37.3475 84.4081 37.7579 84.0889 38.0771L89.6294 46.7413C90.0398 46.5817 90.5642 46.2625 91.1115 45.8977H91.1343Z" fill="#56739B" fill-opacity="0.1"/>
<path fill-rule="evenodd" clip-rule="evenodd" d="M41.8167 174.197C45.67 174.197 47.8589 170.64 47.8589 166.353C47.8589 162.614 45.898 158.692 41.8395 158.692C37.781 158.692 35.7974 162.409 35.7974 166.559C35.7974 170.708 37.9862 174.197 41.8167 174.197Z" fill="#56739B" fill-opacity="0.1"/>
<path fill-rule="evenodd" clip-rule="evenodd" d="M187.421 25.3087C190.066 25.7191 191.936 23.5302 192.392 20.6117C192.802 18.0581 191.89 15.1624 189.109 14.7292C186.35 14.296 184.594 16.6216 184.138 19.4489C183.705 22.2078 184.799 24.8983 187.421 25.3087Z" fill="#56739B" fill-opacity="0.1"/>
<path fill-rule="evenodd" clip-rule="evenodd" d="M69.1546 52.9202C68.3566 52.487 67.6954 52.0538 67.057 51.6206H67.0342C67.4218 52.3502 67.7866 53.0798 68.1286 53.8323L69.7247 57.4804L72.6203 54.8355L69.1546 52.9202Z" fill="#56739B" fill-opacity="0.1"/>
<path fill-rule="evenodd" clip-rule="evenodd" d="M272.171 62.1545C272.604 61.3565 273.038 60.6953 273.448 60.0341H273.425C272.718 60.3989 272.012 60.7637 271.259 61.1285L267.634 62.7701L270.301 65.643L272.171 62.1545Z" fill="#56739B" fill-opacity="0.1"/>
<path fill-rule="evenodd" clip-rule="evenodd" d="M293.307 96.9254C296.021 95.489 296.933 93.0493 295.268 89.9028C294.858 89.1276 294.493 88.5804 294.197 88.2384L285.122 93.0721C285.259 93.4825 285.532 94.0298 285.829 94.6226C287.516 97.7919 290.207 98.5899 293.33 96.9254H293.307Z" fill="#56739B" fill-opacity="0.1"/>
<path fill-rule="evenodd" clip-rule="evenodd" d="M65.6431 263.758L61.3794 267.771L62.8386 269.321C64.3435 270.94 66.1903 271.122 67.5356 269.868C69.0404 268.455 68.6756 266.745 67.1936 265.126C66.5095 264.396 65.9623 263.94 65.6659 263.758H65.6431Z" fill="#56739B" fill-opacity="0.1"/>
<path fill-rule="evenodd" clip-rule="evenodd" d="M300.444 107.209C301.128 106.616 301.767 106.16 302.405 105.704V105.658C301.607 105.772 300.786 105.863 299.965 105.932L295.998 106.137L297.457 109.785L300.467 107.209H300.444Z" fill="#56739B" fill-opacity="0.1"/>
<path fill-rule="evenodd" clip-rule="evenodd" d="M231.381 33.8817C232.749 31.1229 232.019 28.6148 228.827 27.0644C228.052 26.6768 227.414 26.4715 226.98 26.3575L222.489 35.6146C222.831 35.8654 223.378 36.1618 223.971 36.4354C227.209 38.0087 229.831 37.051 231.381 33.8817Z" fill="#56739B" fill-opacity="0.1"/>
<path fill-rule="evenodd" clip-rule="evenodd" d="M289.636 242.257C286.923 240.592 283.207 240.273 281.405 243.214C279.627 246.133 281.405 249.234 284.415 251.081C287.334 252.859 290.913 252.882 292.623 250.1C294.333 247.296 292.715 244.149 289.614 242.257H289.636Z" fill="#56739B" fill-opacity="0.1"/>
<path fill-rule="evenodd" clip-rule="evenodd" d="M254.888 285.031L258.605 281.975L254.478 279.422C253.543 278.829 252.745 278.259 251.97 277.689H251.924C252.335 278.601 252.768 279.513 253.133 280.471L254.866 285.054L254.888 285.031Z" fill="#56739B" fill-opacity="0.1"/>
<path fill-rule="evenodd" clip-rule="evenodd" d="M313.463 158.692C309.427 158.692 307.421 162.409 307.421 166.559C307.421 170.708 309.61 174.197 313.44 174.197C317.271 174.197 319.482 170.64 319.482 166.353C319.482 162.614 317.522 158.692 313.463 158.692Z" fill="#56739B" fill-opacity="0.1"/>
<path fill-rule="evenodd" clip-rule="evenodd" d="M128.3 302.678C125.016 301.721 122.485 304.297 121.505 307.672C120.547 310.955 121.505 314.421 124.606 315.333C127.752 316.245 130.374 313.851 131.378 310.362C132.267 307.307 131.583 303.636 128.277 302.678H128.3Z" fill="#56739B" fill-opacity="0.1"/>
<path fill-rule="evenodd" clip-rule="evenodd" d="M264.009 265.992C263.325 266.722 262.914 267.292 262.755 267.611L266.996 271.624L268.455 270.096C269.983 268.5 270.051 266.631 268.729 265.377C267.224 263.963 265.537 264.419 264.032 265.992H264.009Z" fill="#56739B" fill-opacity="0.1"/>
<path fill-rule="evenodd" clip-rule="evenodd" d="M332 165.943C332 163.503 331.932 161.109 331.818 158.692C331.772 157.689 331.704 156.686 331.658 155.706C331.567 154.406 331.476 153.129 331.362 151.852C324.18 66.8058 252.905 0 166.012 0C79.1183 0 13.1105 61.9721 1.6874 142.504C1.6874 142.504 1.6874 142.595 1.6874 142.618C1.25418 145.65 0.934974 148.706 0.661367 151.784C0.547364 153.106 0.433361 154.406 0.364959 155.728C0.296557 156.709 0.250956 157.689 0.205354 158.67C0.0913511 161.109 0.0229492 163.526 0.0229492 165.989C0.0229492 168.451 0.0913511 170.891 0.205354 173.308C0.250956 174.288 0.296557 175.268 0.364959 176.226C0.456161 177.549 0.547364 178.871 0.661367 180.193C0.912174 183.249 1.25418 186.281 1.66459 189.291C1.66459 189.359 1.66459 189.405 1.6874 189.473C13.1105 270.028 82.3104 331.977 166.012 331.977C249.713 331.977 324.18 265.194 331.362 180.148C331.476 178.848 331.567 177.571 331.658 176.272C331.727 175.268 331.772 174.288 331.818 173.285C331.932 170.891 332 168.474 332 166.034V165.92V165.943ZM304.161 106.114L293.695 115.075L293.034 113.41L296.317 110.606L294.607 106.319L290.298 106.57L289.659 104.951L303.408 104.244L304.161 106.137V106.114ZM66.8972 172.19L62.8159 170.116L58.7802 172.19L59.4642 167.699L56.2265 164.438L60.7638 163.868L62.7931 159.376L64.9135 163.868L69.4965 164.438L66.1904 167.699L66.8744 172.19H66.8972ZM82.5384 189.496L74.923 166.034L82.5384 142.527H46.1258C57.0701 86.3004 106.57 43.8456 166.012 43.8456C225.453 43.8456 274.953 86.3004 285.897 142.527H249.485L257.1 166.034L249.485 189.496H285.897C274.953 245.722 225.453 288.177 166.012 288.177C106.57 288.177 57.0701 245.722 46.1258 189.496H82.5384ZM287.585 157.028V175.884H285.145V157.028H287.585ZM273.95 172.19L269.868 170.116L265.833 172.19L266.517 167.699L263.279 164.438L267.816 163.868L269.846 159.376L271.966 163.868L276.549 164.438L273.243 167.699L273.927 172.19H273.95ZM166.012 291.666C227.368 291.666 278.441 247.66 289.431 189.496H294.356C283.298 250.351 230.059 296.522 165.989 296.522C101.919 296.522 48.7023 250.374 37.6212 189.496H42.5461C53.5588 247.66 104.609 291.666 165.966 291.666H166.012ZM166.012 40.3571C104.655 40.3571 53.5816 84.3623 42.5917 142.527H37.6668C48.7251 81.6719 101.965 35.5006 166.034 35.5006C230.104 35.5006 283.321 81.6491 294.402 142.527H289.477C278.464 84.3623 227.414 40.3571 166.057 40.3571H166.012ZM296.408 89.1961C297.548 91.3393 297.868 93.1178 297.457 94.6226C297.07 96.1503 296.044 97.4499 294.197 98.4531C292.327 99.4564 290.48 99.6844 288.839 99.1827C287.197 98.6811 285.669 97.2219 284.484 94.9646C283.914 93.9158 283.503 92.981 283.184 92.183L294.516 86.1636C295.132 87.0072 295.816 88.0104 296.431 89.1961H296.408ZM289.887 78.5482L290.799 79.9618L279.878 87.0756L278.966 85.662L289.887 78.5482ZM283.161 69.1543L273.927 76.1997L277.301 80.623L276.184 81.4895L271.784 75.7209L282.158 67.8319L283.184 69.1771L283.161 69.1543ZM275.249 59.7833L268.728 71.9132L267.497 70.5908L269.549 66.7831L266.403 63.4086L262.481 65.2098L261.295 63.933L273.859 58.3012L275.249 59.7833ZM254.843 49.5914C257.51 46.5133 261.409 46.2169 264.465 48.8618C265.696 49.9334 266.243 50.8454 266.426 51.3242L265.217 52.0994C264.943 51.4382 264.396 50.6858 263.575 49.979C261.273 47.9725 258.445 48.1321 256.211 50.7314C254.136 53.1483 254.182 55.9072 256.576 57.982C257.351 58.6432 258.286 59.1676 259.015 59.3728L258.4 60.6041C257.738 60.4445 256.598 59.8517 255.39 58.8256C252.608 56.4316 252.038 52.8519 254.82 49.6142L254.843 49.5914ZM241.459 32.3085L247.433 36.025L246.68 37.2334L242.143 34.4062L239.977 37.8947L244.286 40.5623L243.556 41.748L239.247 39.0575L236.762 43.0476L241.55 46.0345L240.798 47.2201L234.573 43.344L241.459 32.2857V32.3085ZM226 24.4879C226.98 24.8071 228.143 25.2175 229.329 25.8103C231.495 26.8591 232.817 28.1132 233.365 29.5724C233.935 31.0317 233.889 32.6961 232.977 34.5886C232.042 36.5038 230.697 37.7806 229.078 38.3279C227.459 38.8979 225.362 38.6015 223.082 37.507C222.01 36.9826 221.121 36.5038 220.391 36.025L225.977 24.4879H226ZM201.786 16.006L203.541 16.5077L205.753 23.9863C206.277 25.7191 206.619 27.2468 206.847 28.706H206.893C207.212 26.9731 207.623 25.4455 208.17 23.4847L209.652 18.2405L211.18 18.6737L207.623 31.2141L205.981 30.7581L203.815 23.2794C203.336 21.6378 202.903 19.9734 202.652 18.4229H202.584C202.219 20.0418 201.831 21.5466 201.239 23.6443L199.711 29.0024L198.183 28.5692L201.74 16.0288L201.786 16.006ZM190.522 10.7163L192.551 11.0355L189.77 12.8596L188.402 12.6544L190.522 10.7163ZM182.382 19.1753C183.021 15.094 185.985 12.814 189.428 13.3612C192.939 13.9084 194.786 16.9637 194.193 20.7942C193.486 25.2175 190.431 27.1556 187.148 26.6311C183.75 26.0839 181.767 23.0742 182.382 19.1981V19.1753ZM175.2 11.9931L176.887 12.1071L176.021 25.1263L174.334 25.0123L175.2 11.9931ZM169.409 11.6511V13.0876L165.442 13.156L165.624 24.7615H163.914L163.731 13.1788L159.764 13.2472V11.8107L169.386 11.6511H169.409ZM151.077 12.2667C152.4 12.1299 153.403 12.3351 154.018 12.6087L153.699 14.0224C153.243 13.84 152.354 13.5436 151.168 13.6576C149.39 13.84 148.843 14.98 148.934 15.8464C149.071 17.0549 149.914 17.5793 151.761 18.0809C154.041 18.6965 155.272 19.6313 155.455 21.5466C155.66 23.5531 154.36 25.4227 151.305 25.7419C150.051 25.8787 148.66 25.6507 147.908 25.2631L148.181 23.8039C148.979 24.1915 150.119 24.4651 151.26 24.3283C152.97 24.1459 153.882 23.1426 153.745 21.843C153.631 20.6346 152.856 20.019 151.032 19.5173C148.843 18.9929 147.406 18.0353 147.224 16.2112C147.019 14.182 148.523 12.5175 151.054 12.2667H151.077ZM140.498 13.8856L140.771 15.2764L135.527 16.3253L136.325 20.361L141.296 19.3577L141.569 20.7258L136.599 21.7062L137.511 26.3119L143.051 25.1947L143.325 26.5855L136.143 28.022L133.589 15.2536L140.498 13.8856ZM123.238 17.8757C124.674 17.4197 125.905 17.3969 126.521 17.4881V18.9245C125.791 18.8333 124.879 18.8561 123.625 19.2437C120.593 20.1786 119.202 22.6866 120.182 25.8103C121.163 28.9568 123.648 30.2336 126.544 29.3444C127.592 29.0252 128.277 28.6376 128.573 28.3412L127.41 24.6247L124.879 25.4227L124.469 24.1231L128.573 22.8462L130.443 28.82C129.804 29.2988 128.505 30.1652 126.84 30.6896C124.948 31.2825 123.26 31.2825 121.664 30.4844C120.273 29.7776 119.088 28.3184 118.495 26.3803C117.355 22.6638 119.065 19.1525 123.238 17.8529V17.8757ZM103.059 25.6963L103.697 26.9503L98.9093 29.3444L100.756 33.0153L105.293 30.7581L105.909 32.0121L101.372 34.2921L103.469 38.4875L108.508 35.9566L109.147 37.2106L102.603 40.4939L96.766 28.8428L103.059 25.6963ZM84.8869 35.7742C86.9162 34.4746 88.6718 34.0185 90.1995 34.2921C91.7499 34.5658 93.1407 35.455 94.2808 37.2334C95.4208 39.0347 95.8084 40.8359 95.4436 42.5004C95.0788 44.1876 93.7336 45.8293 91.6131 47.1973C90.6099 47.8357 89.7206 48.3373 88.9682 48.725L82.0596 37.9403C82.8349 37.2562 83.7925 36.5038 84.9325 35.7742H84.8869ZM66.8288 49.7966L78.9131 56.4316L77.5907 57.64L73.8058 55.5423L70.3857 58.666L72.1413 62.6105L70.8645 63.7962L65.3468 51.1874L66.8516 49.8194L66.8288 49.7966ZM51.0508 66.327L57.2753 68.7439C58.8486 69.3823 60.2166 69.9751 61.4706 70.5908L61.5163 70.5452C60.741 69.4507 59.943 68.1511 59.0766 66.6462L55.7933 60.7865L57.1841 59.1676L67.604 67.0339L66.5324 68.2879L61.9723 64.8222C60.5358 63.705 58.803 62.3825 57.5717 61.3109L57.5261 61.3565C58.3926 62.6789 59.2818 64.161 60.2166 65.8254L63.5227 71.6852L62.7019 72.6428L56.6141 70.2031C54.8129 69.4735 53.194 68.7895 51.7804 68.0599H51.7576C52.966 69.1771 54.5621 70.682 55.9757 72.0272L59.9886 75.9261L58.9398 77.1345L49.6371 67.9687L51.028 66.3498L51.0508 66.327ZM45.2594 73.8968L46.4222 74.6949L43.4126 79.141L46.8326 81.4439L49.6599 77.2485L50.8228 78.0238L47.9955 82.2191L51.8944 84.8411L55.0637 80.167L56.2265 80.965L52.1224 87.03L41.3377 79.7338L45.2822 73.8968H45.2594ZM38.1684 84.7499L39.4224 85.434L37.5072 88.9225L47.6763 94.4858L46.8554 95.9679L36.6864 90.4045L34.7939 93.893L33.5399 93.209L38.1684 84.7499ZM29.7094 101.03C30.2338 99.7984 30.895 99.0459 31.4194 98.6355L32.491 99.5932C32.1034 99.8896 31.4194 100.551 30.9406 101.622C30.2338 103.264 30.9406 104.29 31.7614 104.655C32.8787 105.134 33.7451 104.655 35.0903 103.264C36.732 101.577 38.1684 100.961 39.9241 101.714C41.7709 102.512 42.7969 104.564 41.5657 107.391C41.0641 108.554 40.1977 109.671 39.4908 110.127L38.3508 109.169C39.0804 108.668 39.8557 107.801 40.3117 106.73C40.9957 105.157 40.5397 103.857 39.3312 103.355C38.214 102.876 37.302 103.241 35.9795 104.586C34.4519 106.251 32.9243 107.026 31.237 106.297C29.3674 105.499 28.6377 103.355 29.641 101.03H29.7094ZM25.9701 111.244L38.3052 115.462L37.758 117.058L25.4229 112.84L25.9701 111.244ZM15.9606 175.861H13.5209V157.005H15.9606V175.861ZM24.1916 176.135C22.3676 176.135 20.3839 175.61 19.3807 174.926L19.9963 172.874C21.0907 173.536 22.6868 174.106 24.3512 174.106C26.8365 174.106 28.2957 172.783 28.2957 170.891C28.2957 169.135 27.2925 168.109 24.7388 167.151C21.6607 166.057 19.7683 164.461 19.7683 161.816C19.7683 158.875 22.208 156.686 25.8789 156.686C27.8169 156.686 29.2078 157.142 30.0514 157.621L29.3902 159.604C28.7745 159.262 27.5205 158.715 25.8105 158.715C23.234 158.715 22.2536 160.266 22.2536 161.542C22.2536 163.298 23.3936 164.165 25.9929 165.191C29.185 166.422 30.8038 167.972 30.8038 170.731C30.8038 173.65 28.6605 176.158 24.1916 176.158V176.135ZM32.3542 122.941C31.1686 122.645 30.325 123.123 29.2306 124.674C27.9765 126.544 26.5629 127.547 24.7844 127.068C22.8236 126.566 21.7748 124.56 22.4132 122.097C22.7552 120.798 23.2796 119.954 23.7584 119.475L24.9668 120.273C24.6248 120.615 24.032 121.368 23.7356 122.508C23.2796 124.241 24.146 125.153 25.0124 125.381C26.1981 125.677 26.9733 125.061 28.0905 123.511C29.4586 121.596 30.781 120.775 32.6279 121.254C34.5659 121.755 35.8883 123.648 35.1131 126.612C34.7939 127.82 34.0871 129.074 33.4715 129.622L32.2174 128.846C32.8559 128.231 33.5171 127.273 33.7907 126.133C34.2239 124.469 33.5855 123.26 32.3314 122.941H32.3542ZM41.9761 156.686C47.1291 156.686 50.4579 160.63 50.4579 166.239C50.4579 172.738 46.5134 176.18 41.7025 176.18C36.8916 176.18 33.2207 172.327 33.2207 166.604C33.2207 160.608 36.9372 156.709 41.9761 156.709V156.686ZM35.7971 247.296C35.0219 245.95 34.5659 244.286 34.6343 243.26L36.39 242.85C36.3672 243.944 36.6408 245.358 37.3476 246.589C38.4192 248.413 39.9925 248.914 41.3833 248.116C42.6829 247.364 42.9793 246.201 42.6145 243.921C42.1129 241.208 42.4549 239.11 44.4158 237.993C46.5818 236.739 49.2039 237.605 50.7772 240.296C51.598 241.709 51.8716 242.941 51.8716 243.739L50.1159 244.104C50.1159 243.511 49.9791 242.348 49.2495 241.094C48.1551 239.201 46.6046 239.133 45.6698 239.68C44.3702 240.433 44.2334 241.641 44.5982 243.99C45.0542 246.862 44.5982 248.709 42.5917 249.872C40.4485 251.103 37.6896 250.602 35.7971 247.341V247.296ZM50.0247 264.921L48.6339 265.947L43.2757 258.719L56.1353 249.165L61.2882 256.12L59.8974 257.146L55.9757 251.856L51.9172 254.865L55.6337 259.859L54.2656 260.885L50.5491 255.891L45.9206 259.334L50.0475 264.898L50.0247 264.921ZM64.0699 271.761L64.0243 271.806C64.5487 272.992 64.2295 274.314 63.2719 275.728C61.9951 277.643 61.1286 278.966 60.9234 279.65L59.4642 278.099C59.6238 277.598 60.3762 276.389 61.5163 274.702C62.7931 272.832 62.8159 271.647 61.5847 270.233L60.2394 268.819L55.1777 273.562L53.764 272.057L65.2784 261.227C66.1448 261.842 67.262 262.846 68.2424 263.895C69.7473 265.513 70.4313 266.813 70.4541 268.158C70.4997 269.23 69.9981 270.301 69.1089 271.168C67.5584 272.627 65.6432 272.604 64.0699 271.761ZM69.3597 287.197L75.5843 271.533L77.2943 272.969L74.1706 280.63C73.327 282.728 72.529 284.62 71.6625 286.33H71.7081C73.2358 285.213 75.037 284.096 76.9295 282.933L84.0661 278.578L85.7761 279.992L71.1381 288.656L69.3825 287.197H69.3597ZM83.1541 297.571L81.444 296.408L90.4047 283.138L92.1147 284.301L83.1541 297.571ZM104.245 293.148C100.939 291.369 97.6096 292.304 95.626 296.021C93.7791 299.464 94.5772 302.77 97.9973 304.594C99.1145 305.186 100.369 305.574 101.281 305.597L100.893 307.238C100.049 307.216 98.5217 306.828 96.8116 305.916C92.8443 303.773 91.2027 299.669 93.6652 295.04C96.0364 290.617 100.642 289.249 104.997 291.597C106.753 292.532 107.665 293.513 108.007 294.014L106.776 295.268C106.274 294.561 105.407 293.786 104.245 293.148ZM109.557 311.548L107.642 310.75L113.798 295.975L115.713 296.773L109.557 311.548ZM133.521 310.818C131.993 316.108 127.957 318 124.036 316.86C119.977 315.675 118.039 311.707 119.384 307.056C120.798 302.177 124.765 299.851 128.869 301.037C133.065 302.245 134.843 306.258 133.543 310.818H133.521ZM158.715 322.469L149.846 321.74L151.146 305.779L153.198 305.939L152.035 320.166L158.852 320.736L158.715 322.469ZM166.308 322.606L165.852 306.6L174.493 306.349L174.539 308.082L167.972 308.265L168.109 313.326L174.334 313.144L174.379 314.854L168.155 315.036L168.314 320.805L175.246 320.6L175.291 322.333L166.285 322.583L166.308 322.606ZM190.522 320.736C188.128 321.101 186.053 320.805 184.275 319.574C182.702 318.479 181.539 316.496 181.151 314.033C180.444 309.313 183.158 305.369 188.447 304.548C190.271 304.274 191.776 304.434 192.506 304.662L192.278 306.418C191.366 306.167 190.271 306.03 188.675 306.281C184.822 306.874 182.679 309.655 183.294 313.623C183.91 317.636 186.692 319.642 190.385 319.072C191.731 318.867 192.62 318.525 193.053 318.228L192.323 313.509L189.109 314.01L188.858 312.369L194.079 311.571L195.265 319.186C194.398 319.665 192.665 320.486 190.545 320.805L190.522 320.736ZM203.952 317.772L199.483 302.405L207.782 299.988L208.261 301.652L201.945 303.476L203.359 308.333L209.333 306.6L209.812 308.242L203.838 309.975L205.457 315.515L212.114 313.577L212.593 315.242L203.952 317.75V317.772ZM229.306 308.629L221.394 303.203C219.661 302.017 217.951 300.763 216.515 299.486L216.469 299.532C217.381 301.333 218.202 303.089 219.251 305.528L221.987 311.799L220.209 312.574L213.824 297.89L215.899 297.001L223.834 302.382C225.681 303.636 227.186 304.799 228.554 306.007V305.962C227.55 304.069 226.73 302.314 225.749 300.034L223.082 293.9L224.86 293.125L231.244 307.809L229.329 308.652L229.306 308.629ZM247.547 295.952C247.068 298.004 245.381 299.988 242.736 301.63C241.482 302.405 240.387 302.998 239.452 303.431L231.176 290.047C232.156 289.226 233.342 288.314 234.733 287.448C237.264 285.897 239.407 285.373 241.299 285.738C243.192 286.102 244.879 287.242 246.247 289.431C247.615 291.643 248.048 293.9 247.569 295.929L247.547 295.952ZM264.487 285.738L259.973 282.933L255.595 286.536L257.51 291.483L255.869 292.828L249.918 277.005L251.856 275.432L266.243 284.324L264.533 285.715L264.487 285.738ZM277.461 272.924C276.959 272.81 275.705 272.126 273.95 271.077C272.012 269.914 270.826 269.959 269.481 271.259L268.136 272.673L273.174 277.438L271.761 278.943L260.269 268.09C260.839 267.178 261.774 266.015 262.755 264.989C264.282 263.393 265.536 262.618 266.882 262.526C267.953 262.435 269.048 262.846 269.96 263.689C271.487 265.149 271.601 267.064 270.849 268.683L270.894 268.728C272.057 268.113 273.38 268.363 274.862 269.23C276.845 270.393 278.236 271.168 278.897 271.35L277.438 272.901L277.461 272.924ZM283.845 265.263L271.191 255.458L272.445 253.817L285.099 263.621L283.822 265.263H283.845ZM294.037 251.081C291.825 254.683 287.493 255.504 283.344 252.996C279.011 250.351 277.826 245.905 280.038 242.257C282.318 238.517 286.65 237.856 290.708 240.341C295.405 243.214 296.158 247.592 294.037 251.081ZM295.816 176.158C293.992 176.158 292.008 175.633 291.005 174.949L291.62 172.897C292.715 173.558 294.311 174.128 295.975 174.128C298.46 174.128 299.92 172.806 299.92 170.914C299.92 169.158 298.916 168.132 296.363 167.174C293.285 166.08 291.392 164.484 291.392 161.839C291.392 158.898 293.832 156.709 297.503 156.709C299.441 156.709 300.832 157.165 301.675 157.644L301.014 159.627C300.398 159.285 299.144 158.738 297.434 158.738C294.858 158.738 293.878 160.288 293.878 161.565C293.878 163.321 295.018 164.187 297.617 165.213C300.809 166.445 302.428 167.995 302.428 170.754C302.428 173.672 300.262 176.18 295.816 176.18V176.158ZM299.213 127.638C297.708 126.772 296.545 125.016 295.884 122.576C295.565 121.413 295.36 120.433 295.223 119.589L307.603 116.215C308.014 117.172 308.447 118.312 308.812 119.589C309.45 121.915 309.359 123.739 308.63 125.107C307.9 126.498 306.623 127.547 304.594 128.117C302.542 128.687 300.695 128.504 299.213 127.638ZM313.326 176.18C308.356 176.18 304.845 172.327 304.845 166.604C304.845 160.608 308.561 156.709 313.6 156.709C318.639 156.709 322.082 160.653 322.082 166.262C322.082 172.76 318.137 176.203 313.326 176.203V176.18Z" fill="#56739B" fill-opacity="0.1"/>
<path fill-rule="evenodd" clip-rule="evenodd" d="M235.668 288.816C234.756 289.386 234.117 289.887 233.729 290.275L240.364 301.014C240.866 300.809 241.527 300.444 242.211 300.011C245.973 297.685 246.703 294.333 244.446 290.64C242.485 287.425 239.407 286.49 235.69 288.793L235.668 288.816Z" fill="#56739B" fill-opacity="0.1"/>
<path fill-rule="evenodd" clip-rule="evenodd" d="M306.828 118.176L296.91 120.889C296.956 121.322 297.093 121.915 297.275 122.553C298.21 126.019 300.672 127.387 304.07 126.452C307.034 125.654 308.47 123.465 307.535 120.045C307.307 119.202 307.056 118.586 306.851 118.198L306.828 118.176Z" fill="#56739B" fill-opacity="0.1"/>
<path fill-rule="evenodd" clip-rule="evenodd" d="M160.425 264.715H160.494C162.341 264.829 164.165 264.989 166.011 264.989C167.858 264.989 169.705 264.806 171.529 264.715H171.598C206.027 262.777 235.759 243.146 251.947 214.828H247.98C242.53 223.948 235.645 232.11 227.55 238.928C225.225 237.127 219.593 233.228 210.883 229.443C213.688 225.133 216.355 220.231 218.795 214.828H214.942C212.661 219.638 210.176 224.062 207.554 228.052C197.59 224.153 184.229 220.778 167.744 220.55V214.828H164.256V220.55C147.771 220.778 134.387 224.153 124.423 228.052C122.462 225.111 120.638 221.85 118.883 218.43C118.495 218.635 118.13 218.134 118.472 217.837L118.563 217.769C118.062 216.788 117.537 215.854 117.058 214.828H113.274C115.69 220.163 118.358 225.042 121.231 229.397C112.498 233.182 106.821 237.127 104.495 238.928C96.4239 232.11 89.5153 223.948 84.0659 214.828H80.0986C96.2871 243.146 126.019 262.777 160.448 264.715H160.425ZM208.854 232.452C216.788 235.827 222.147 239.315 224.723 241.185C211.863 251.24 196.382 258.058 179.487 260.452C184.868 257.1 192.346 251.673 199.962 243.488C202.857 240.364 205.89 236.671 208.877 232.43L208.854 232.452ZM167.744 224.016C183.203 224.244 195.88 227.391 205.457 231.062C191.115 251.035 173.969 259.768 170.754 261.272C169.751 261.318 168.747 261.409 167.744 261.432V224.016ZM164.256 224.016V261.432C163.253 261.432 162.249 261.341 161.246 261.272C158.031 259.768 140.862 251.058 126.521 231.084C136.097 227.413 148.774 224.244 164.256 224.016ZM123.237 232.407C133.475 246.862 145.172 255.777 152.696 260.474C135.709 258.103 120.182 251.286 107.277 241.185C109.853 239.315 115.257 235.804 123.237 232.407Z" fill="#56739B" fill-opacity="0.1"/>
<path fill-rule="evenodd" clip-rule="evenodd" d="M89.1964 174.653C88.4895 174.721 87.9651 174.767 87.5091 174.721V176.431C88.0107 176.454 88.6719 176.431 89.4472 176.317C91.1116 176.135 92.7533 175.405 93.9389 174.242C95.4665 172.76 96.6066 170.389 96.6066 166.992C96.6066 163.047 94.6457 160.471 91.4992 160.471C88.3527 160.471 86.2095 163.047 86.2095 165.966C86.2095 168.611 87.9879 170.708 90.7696 170.708C92.32 170.708 93.5513 170.093 94.4177 169.044H94.4861C94.1897 170.868 93.4601 172.236 92.434 173.171C91.5448 173.992 90.4048 174.493 89.1964 174.676V174.653ZM94.2809 167.493C93.7337 168.428 92.6392 169.112 91.2256 169.112C89.4244 169.112 88.2615 167.767 88.2615 165.829C88.2615 163.64 89.5156 162.067 91.3168 162.067C93.5057 162.067 94.4861 164.096 94.4861 166.741C94.4861 167.083 94.4177 167.311 94.3037 167.493H94.2809Z" fill="#56739B" fill-opacity="0.1"/>
<path fill-rule="evenodd" clip-rule="evenodd" d="M98.7725 168.497C98.8181 173.604 100.87 176.454 103.88 176.454C107.3 176.454 109.261 173.558 109.261 168.291C109.261 163.367 107.414 160.471 104.153 160.471C100.893 160.471 98.7725 163.321 98.7725 168.519V168.497ZM107.163 168.383C107.163 172.327 106.137 174.835 103.994 174.835C102.101 174.835 100.847 172.555 100.847 168.519C100.847 164.484 102.17 162.067 104.017 162.067C106.183 162.067 107.163 164.575 107.163 168.383Z" fill="#56739B" fill-opacity="0.1"/>
<path fill-rule="evenodd" clip-rule="evenodd" d="M111.632 168.497C111.678 173.604 113.73 176.454 116.74 176.454C120.16 176.454 122.121 173.558 122.121 168.291C122.121 163.367 120.274 160.471 117.013 160.471C113.753 160.471 111.632 163.321 111.632 168.519V168.497ZM116.899 162.067C119.065 162.067 120.046 164.575 120.046 168.383C120.046 172.19 119.02 174.835 116.876 174.835C114.984 174.835 113.73 172.555 113.73 168.519C113.73 164.484 115.052 162.067 116.899 162.067Z" fill="#56739B" fill-opacity="0.1"/>
<path fill-rule="evenodd" clip-rule="evenodd" d="M129.804 176.181V160.722H128.003L124.628 162.523L125.039 164.119L127.729 162.683H127.775V176.181H129.804Z" fill="#56739B" fill-opacity="0.1"/>
<path fill-rule="evenodd" clip-rule="evenodd" d="M201.672 173.308L200.03 174.904V176.18H209.903V174.448H202.949V174.402L204.18 173.262C207.44 170.115 209.515 167.813 209.515 164.963C209.515 162.751 208.102 160.471 204.773 160.471C202.994 160.471 201.467 161.132 200.395 162.044L201.056 163.526C201.763 162.933 202.926 162.226 204.34 162.226C206.642 162.226 207.418 163.686 207.418 165.259C207.395 167.585 205.616 169.591 201.649 173.353L201.672 173.308Z" fill="#56739B" fill-opacity="0.1"/>
<path fill-rule="evenodd" clip-rule="evenodd" d="M217.336 160.471C214.19 160.471 211.955 163.321 211.955 168.519C212.001 173.627 214.053 176.477 217.062 176.477C220.483 176.477 222.443 173.581 222.443 168.314C222.443 163.389 220.597 160.494 217.336 160.494V160.471ZM217.199 174.835C215.307 174.835 214.053 172.555 214.053 168.519C214.053 164.484 215.375 162.067 217.222 162.067C219.388 162.067 220.369 164.575 220.369 168.383C220.369 172.19 219.342 174.835 217.199 174.835Z" fill="#56739B" fill-opacity="0.1"/>
<path fill-rule="evenodd" clip-rule="evenodd" d="M230.127 176.181V160.722H228.349L224.974 162.523L225.362 164.119L228.052 162.683H228.098V176.181H230.127Z" fill="#56739B" fill-opacity="0.1"/>
<path fill-rule="evenodd" clip-rule="evenodd" d="M238.107 174.767C236.694 174.767 235.44 174.288 234.801 173.9L234.277 175.496C235.006 175.975 236.443 176.454 238.13 176.454C241.482 176.454 243.899 174.197 243.899 171.164C243.899 169.204 242.895 167.881 241.687 167.197C240.729 166.627 239.544 166.353 238.358 166.353C237.788 166.353 237.446 166.399 237.104 166.445L237.697 162.477H243.602V160.722H236.192L235.189 168.155C235.759 168.086 236.443 167.995 237.332 167.995C240.433 167.995 241.755 169.432 241.778 171.415C241.778 173.49 240.091 174.767 238.107 174.767Z" fill="#56739B" fill-opacity="0.1"/>
<path fill-rule="evenodd" clip-rule="evenodd" d="M144.442 198.935C144.647 198.867 144.921 199.004 144.898 199.232C144.67 202.242 144.442 203.724 143.507 206.163C143.348 206.574 143.804 206.916 144.1 206.596C149.048 201.238 155.432 192.984 160.676 189.405C164.096 187.079 166.741 186.874 170.321 185.301C191.069 176.272 183.363 166.581 192.893 156.959C196.587 153.243 197.454 153.927 202.629 150.917C202.675 150.895 202.743 150.872 202.812 150.872C204.453 150.575 208.603 149.823 212.707 149.07C212.707 149.07 207.007 147.52 203.245 146.426C203.131 146.38 203.017 146.312 202.971 146.198C200.076 138.879 193.076 134.638 181.63 138.97C181.402 139.061 181.128 138.879 181.128 138.628C181.197 129.85 175.816 118.746 174.835 112.909C174.767 112.544 174.265 112.498 174.129 112.84C172.35 117.72 171.119 120.889 170.572 125.426C170.07 129.713 171.506 130.237 170.116 133.68C167.22 141.25 172.418 144.716 169.226 145.377C168.086 145.582 163.845 138.924 153.426 135.732C153.403 135.732 153.38 135.732 153.357 135.709C145.149 131.104 143.302 126.863 137.419 124.081C130.26 120.684 124.218 115.052 119.726 109.466C119.27 108.896 118.381 109.42 118.655 110.081C119.407 112.019 131.355 138.856 133.589 143.348C137.784 151.738 137.693 151.009 141.432 156.139C145.856 162.204 151.237 166.901 151.647 167.151C151.807 167.243 151.852 167.448 151.784 167.607C150.279 171.05 148.911 172.943 147.406 176.454C144.647 182.975 144.123 186.6 141.843 190.773C137.1 199.642 127.524 209.88 118.472 217.746C118.586 217.974 118.7 218.179 118.814 218.407C137.762 208.193 140.201 200.189 144.351 198.913L144.442 198.935Z" fill="#56739B" fill-opacity="0.1"/>
</svg>
