<svg width="57" height="56" viewBox="0 0 57 56" fill="none" xmlns="http://www.w3.org/2000/svg">
<path d="M14.067 52.0139C13.1909 50.3611 14.2617 48.757 14.2131 47.1042C14.067 44.3334 13.8723 41.5139 14.6511 38.7431C15.6247 35.1459 17.5717 32.2292 20.7844 30.2361C21.5145 29.7986 22.342 29.3611 22.9261 30.0903C23.5589 30.9167 23.1695 31.6945 22.2447 32.2292C21.2225 32.8125 20.395 33.7361 19.3728 35.1945C21.4658 35.1945 23.1695 35.1945 24.8732 35.1945C27.453 35.1945 30.0329 35.1945 32.564 35.1945C33.3429 35.1945 34.3651 35.0972 34.3651 36.1667C34.3651 37.2847 33.3915 37.4792 32.4667 37.4792C28.2805 37.4792 24.0944 37.4792 19.9569 37.4792C17.2797 37.4792 17.2797 37.4792 16.7929 40.4931C18.2532 41.3681 19.9082 40.7361 21.4172 40.9306C22.1473 41.0278 23.1695 40.7361 23.0722 42C22.9748 43.0695 22.196 43.2153 21.3198 43.2153C20.2002 43.2153 19.0807 43.3125 17.9611 43.2153C16.8416 43.1181 16.3061 43.6528 16.2575 44.6736C16.1601 45.7431 16.6469 46.5209 17.8151 46.6667C18.1558 46.7153 18.4479 46.7153 18.7886 46.7153C24.5811 46.7153 30.3736 46.7153 36.1174 46.7153C37.383 46.7153 38.2592 46.6667 38.2592 44.9653C38.2592 43.3125 37.383 43.1667 36.1174 43.2153C33.2942 43.2639 30.5196 43.2153 27.6964 43.2153C26.8202 43.2153 25.7494 43.2639 25.798 42C25.8467 40.882 26.8202 40.9306 27.5991 40.9306C30.8604 40.9306 34.1704 40.9306 37.4317 40.9306C38.1131 38.4028 36.7989 36.75 35.6306 35.2431C34.1217 33.2986 32.126 31.8403 29.8868 30.625C26.7229 28.9236 23.5102 27.3681 20.4923 25.375C16.0628 22.507 14.2617 18.2778 14.067 13.2222C13.9697 10.5972 14.067 7.92364 14.067 5.29864C14.067 4.76392 13.921 4.08336 14.6998 3.93753C15.5273 3.74308 15.722 4.37503 15.9654 5.00697C16.6469 6.65975 16.3061 8.31253 16.3061 10.0139C16.3061 12.25 16.4035 12.5417 18.5939 12.5417C23.4129 12.5903 28.2318 12.5417 33.0508 12.5903C33.8783 12.5903 34.8518 12.2986 35.5333 13.4167C34.9492 14.7778 33.7323 14.875 32.418 14.875C27.9885 14.875 23.6076 14.875 19.178 14.875C18.3019 14.875 17.4257 14.7292 16.5982 15.1181C16.5495 17.257 17.7664 17.9375 19.6648 17.8889C21.2711 17.8403 22.8774 17.8403 24.4838 17.8889C25.0679 17.8889 25.8467 17.6945 25.9441 18.6667C26.0414 19.6389 25.2626 19.9792 24.6298 20.0764C23.2182 20.2222 21.7579 20.1736 20.2976 20.1736C20.0055 20.1736 19.6648 20.2222 19.178 20.2709C19.5675 22.0695 21.0277 22.75 22.2447 23.6736C25.4573 26.0556 29.2054 27.5139 32.6127 29.5556C37.7724 32.6181 40.4496 37.0417 40.4496 43.0695C40.4496 46.0347 40.4983 49 40.4983 51.9653C39.8655 51.9653 39.2327 51.9653 38.5512 51.9653C38.0158 51.1389 38.3079 50.1181 37.8698 49.2917C36.9936 48.8542 36.0687 49.0486 35.2412 49.0486C30.1302 49.0486 25.0679 49.0486 19.9569 49.0486C16.7442 49.0486 16.7442 49.0486 15.9167 52.0139C15.3813 52.0139 14.6998 52.0139 14.067 52.0139Z" fill="#D64767"/>
<path d="M40.4494 4.22921C40.4494 8.65283 41.0336 13.125 39.8653 17.5C39.0378 20.6598 37.3828 23.3334 34.4623 25.0834C33.6834 25.5695 32.8559 26.1042 32.1745 25.1806C31.5903 24.4028 32.4178 23.8681 32.9046 23.382C33.8295 22.5556 34.8517 21.7778 35.8252 21.0487C34.2675 19.25 31.0549 21.632 31.0549 18.1806C32.3692 17.6459 33.5861 17.7431 34.7543 17.8889C36.8961 18.132 37.8209 17.1598 38.0643 15.2153C38.0643 15.0695 38.1617 14.9237 38.1617 14.7292C38.9405 10.0625 38.5024 9.52783 33.7808 9.52783C29.3512 9.52783 24.9704 9.52783 20.5408 9.52783C19.1292 9.52783 18.1557 9.23616 18.6911 7.2431C21.9524 7.2431 25.2137 7.2431 28.4751 7.2431C30.8602 7.2431 33.294 7.19449 35.6792 7.2431C37.1395 7.29171 38.2103 7.09727 38.2103 5.25005C38.3077 4.03477 39.1352 3.7431 40.4494 4.22921Z" fill="#D64767"/>
<path d="M44.7819 33.2014C44.7819 33.2014 44.2951 35.875 40.5957 37.382C40.5957 37.382 44.2464 38.8403 44.7819 41.5625C44.7819 41.5625 45.8041 38.2084 48.968 37.382C48.9194 37.3334 46.0475 36.4097 44.7819 33.2014ZM44.8305 39.0347C44.2951 38.4028 43.6623 37.8681 43.0782 37.4306C43.857 36.8472 44.4411 36.2639 44.8792 35.6806C45.4147 36.3125 45.9501 36.8959 46.4855 37.2847C45.8041 37.8195 45.2686 38.4028 44.8305 39.0347Z" fill="#D64767"/>
<path d="M12.2662 20.757C12.2662 20.757 11.7795 23.4306 8.08008 24.9375C8.08008 24.9375 11.7308 26.3958 12.2662 29.1181C12.2662 29.1181 13.2884 25.7639 16.4524 24.9375C16.4037 24.9375 13.5318 23.9653 12.2662 20.757ZM12.2662 26.5903C11.7308 25.9583 11.098 25.4236 10.5139 24.9861C11.2927 24.4028 11.8768 23.8195 12.3149 23.2361C12.8504 23.8681 13.3858 24.4514 13.9212 24.8403C13.2884 25.4236 12.753 26.007 12.2662 26.5903Z" fill="#D64767"/>
</svg>
