<svg width="57" height="56" viewBox="0 0 57 56" fill="none" xmlns="http://www.w3.org/2000/svg">
<path d="M27.5019 45.0625C25.4089 45.0625 23.3158 45.0625 21.2227 45.0625C19.519 45.0625 17.864 44.4792 16.063 45.0139C14.7487 45.4028 13.2398 45.0625 11.8282 45.1111C10.7573 45.1598 10.2705 44.6736 10.2705 43.6042C10.2705 40.5417 10.2705 37.4792 10.2705 34.4167C10.2705 33.4931 10.7086 33.1042 11.5848 33.1042C13.2398 33.1042 14.9921 32.7153 16.5011 33.2014C17.9614 33.6389 18.8862 33.1042 20.0545 32.7153C22.0502 32.0348 23.9486 32.4723 25.7983 33.3473C27.7453 34.2709 29.6924 34.9028 31.9315 34.6111C34.2679 34.3195 34.9981 34.9514 35.5335 37.2848C35.7282 38.0625 36.1663 37.7709 36.5557 37.625C38.6975 36.8959 40.8393 36.1667 42.981 35.4375C43.2244 35.3403 43.5165 35.2431 43.7598 35.1945C44.9767 34.8542 46.0476 35.2431 46.4857 36.1181C47.0211 37.2361 46.4857 38.1111 45.6582 38.7431C44.5873 39.5209 43.4191 40.2014 42.2995 40.882C40.2065 42.1459 38.1134 43.3125 36.069 44.5764C35.4849 44.9167 34.9007 45.0625 34.2193 45.0625C31.9802 45.0625 29.741 45.0625 27.5019 45.0625ZM27.3072 43.75C28.3781 43.7986 29.4977 43.7014 30.5685 43.7986C33.3918 44.0903 35.9229 43.507 38.3081 41.8056C40.3525 40.3473 42.5916 39.2292 44.7334 37.9167C45.1714 37.6736 45.5609 37.2848 45.3175 36.75C45.0741 36.1667 44.49 36.3611 44.0519 36.4584C43.8572 36.507 43.6625 36.6042 43.4678 36.6528C39.5737 37.7709 35.8743 39.9098 31.5907 39.4723C30.0818 39.3264 28.6215 39.4723 27.3559 40.4931C27.0152 40.7848 26.6744 40.6389 26.3824 40.3959C25.993 40.007 26.3337 39.7153 26.5771 39.5209C27.5993 38.5973 28.8162 38.257 30.1305 38.2084C31.104 38.1598 32.0775 38.2084 33.051 38.2084C33.7325 38.2084 34.2679 37.9653 34.2679 37.1875C34.2679 36.4098 33.7812 36.0209 33.051 35.9236C32.5156 35.875 31.9315 35.8264 31.3474 35.9236C29.9844 36.1667 28.7188 35.9236 27.4533 35.3889C26.5771 35.0486 25.7496 34.6598 24.8734 34.3195C22.8777 33.4445 20.9306 33.3959 18.9836 34.6111C18.2048 35.0973 17.864 35.632 17.9127 36.5556C17.9614 38.0139 17.9127 39.4723 17.9127 40.882C17.9127 43.1181 18.3508 43.6528 20.6386 43.7014C22.8777 43.7986 25.0681 43.75 27.3072 43.75ZM11.5848 38.9375C11.5848 40.2014 11.5848 41.4167 11.5848 42.6806C11.5848 43.3611 11.8282 43.75 12.5583 43.75C13.6292 43.75 14.6514 43.75 15.7223 43.75C16.3064 43.75 16.5984 43.4584 16.5984 42.875C16.5984 40.3473 16.5984 37.8195 16.5984 35.2431C16.5984 34.6598 16.3064 34.3681 15.7223 34.3681C14.7001 34.3681 13.7265 34.3681 12.7043 34.3681C11.9255 34.3681 11.5848 34.6598 11.6334 35.4375C11.5848 36.6042 11.5848 37.7709 11.5848 38.9375Z" fill="#D64767"/>
<path d="M14.8462 18.132C14.8949 15.1667 16.3065 12.9792 18.935 11.6667C21.5635 10.3542 24.192 10.5972 26.5285 12.4445C27.356 13.0764 27.7941 13.0278 28.6216 12.4445C33.4892 8.84723 39.8658 11.7153 40.4499 17.6945C40.6933 20.3681 39.3304 22.4097 37.3833 24.0625C34.5601 26.4931 31.7369 28.9722 29.011 31.5486C27.8428 32.6667 27.5994 32.6667 26.4312 31.5972C23.7053 29.1667 20.9794 26.7361 18.1075 24.4028C15.9657 22.5556 14.8462 20.5139 14.8462 18.132ZM22.0503 12.2014C19.8599 12.4445 18.0102 13.2222 16.8906 15.2639C15.3816 18.0833 16.0631 20.9514 18.7403 23.1875C21.5149 25.5208 24.2407 27.9028 26.9666 30.2847C27.5994 30.8681 27.9888 30.8195 28.5729 30.2847C30.1306 28.8264 31.7856 27.4653 33.2945 25.9583C34.8035 24.4514 36.6532 23.3333 37.9675 21.632C40.0119 18.9583 39.5251 15.4097 36.8966 13.4167C34.1707 11.375 30.3253 11.8125 28.4269 14.5347C27.8428 15.4097 27.4534 15.3611 26.8692 14.5833C25.701 12.9306 23.9973 12.3472 22.0503 12.2014Z" fill="#D64767"/>
</svg>
