<svg width="57" height="56" viewBox="0 0 57 56" fill="none" xmlns="http://www.w3.org/2000/svg">
<path d="M28.5245 45.1597C23.9003 45.1597 19.2274 45.1597 14.6031 45.1597C12.9481 45.1597 11.7799 44.2847 11.4391 42.875C11.3418 42.5347 11.3418 42.1944 11.3418 41.8542C11.3418 36.7986 11.3418 31.6944 11.3418 26.6389C11.3418 26.0069 11.5365 25.5694 12.0233 25.1806C13.4349 23.9653 14.7491 22.75 16.1608 21.5347C16.5988 21.1458 16.7935 20.7569 16.7449 20.2222C16.7449 19.0556 16.8422 17.8889 17.621 16.8681C18.3025 15.9444 19.1787 15.4583 20.3469 15.4583C20.7363 15.4583 21.0771 15.4097 21.4665 15.4583C22.586 15.6042 23.4135 15.2153 24.241 14.4375C25.3606 13.3194 26.5775 12.3472 27.7457 11.2778C28.4759 10.6458 28.6219 10.6458 29.3034 11.3264C30.715 12.5903 32.1753 13.8542 33.6356 15.1181C33.9276 15.3611 34.2197 15.4583 34.5604 15.4583C35.1445 15.4583 35.7773 15.4583 36.3614 15.4583C38.7953 15.3611 39.8661 17.1597 40.1095 18.8125C40.2069 19.2986 40.2555 19.8333 40.2069 20.3681C40.2069 20.9028 40.4016 21.1944 40.791 21.5347C42.2513 22.7986 43.7116 24.1111 45.1719 25.4236C45.5613 25.7639 45.6099 26.2014 45.6099 26.6389C45.6099 30.8194 45.6099 35 45.6099 39.1806C45.6099 40.1042 45.6099 41.0764 45.6099 42C45.6099 43.9444 44.393 45.1597 42.446 45.1597C37.8217 45.2083 33.1975 45.1597 28.5245 45.1597ZM18.0105 29.3125C18.2052 29.6528 18.4972 29.7986 18.7406 29.9444C21.1257 31.5972 23.5596 33.1528 25.896 34.8542C27.405 35.9722 29.5954 36.0694 31.2991 34.8056C32.9541 33.5903 34.7064 32.4722 36.4101 31.3056C37.335 30.6736 38.2111 30.0417 39.136 29.3611C38.9413 28.7292 38.99 28.0972 38.99 27.5139C38.99 24.7431 39.0386 22.0208 38.99 19.25C38.9413 17.5 38.0164 16.625 36.2641 16.625C33.8789 16.625 31.4451 16.625 29.06 16.625C26.2368 16.625 23.4622 16.625 20.639 16.625C19.5681 16.625 18.838 17.0625 18.3999 18.0347C18.1565 18.5208 18.1078 19.0069 18.1078 19.5417C18.1078 20.9028 18.1078 22.2153 18.1078 23.5764C18.0591 25.5208 18.1078 27.3681 18.0105 29.3125ZM43.0788 43.8958C39.7688 40.7847 36.5561 37.8194 33.3435 34.8542C32.7107 35.2917 32.2239 35.6806 31.6398 36.0208C29.5468 37.3333 27.4537 37.3819 25.3606 35.9722C24.7765 35.5833 24.1924 35.1458 23.4622 34.8056C20.2982 37.7708 17.183 40.7847 14.019 43.75C14.0677 43.7986 14.0677 43.8472 14.1163 43.8958C23.7056 43.8958 33.2462 43.8958 43.0788 43.8958ZM34.3657 34.125C37.6757 37.1875 40.8397 40.1528 44.0036 43.0694C44.101 43.0208 44.1497 43.0208 44.247 42.9722C44.6364 41.2708 44.393 39.5208 44.4417 37.8194C44.4904 36.0694 44.4417 34.3194 44.4417 32.5694C44.4417 30.8681 44.4417 29.1181 44.4417 27.1736C40.9857 29.6042 37.7244 31.8403 34.3657 34.125ZM12.7047 27.3194C12.6561 27.5625 12.6074 27.6111 12.6074 27.6597C12.6074 32.4722 12.6074 37.3333 12.6074 42.1458C12.6074 42.4375 12.6074 42.7778 12.9968 43.0208C16.1121 40.0556 19.276 37.0417 22.4887 33.9792C19.1787 31.7431 15.9661 29.5556 12.7047 27.3194ZM28.4759 12.2014C27.3076 13.2708 26.1394 14.1944 25.0199 15.3611C27.405 15.3611 29.6441 15.3611 32.0779 15.3611C30.8123 14.2431 29.6928 13.2708 28.4759 12.2014ZM40.3042 28.5347C41.6185 27.7083 42.8354 26.9306 43.9549 25.9583C42.738 24.8889 41.6672 23.8194 40.3042 22.7986C40.3042 24.7431 40.3042 26.5417 40.3042 28.5347ZM13.0455 26.0069C14.2624 26.9306 15.4306 27.7083 16.6962 28.5347C16.6962 26.5417 16.6962 24.7917 16.6962 22.7986C15.3333 23.8194 14.2624 24.8403 13.0455 26.0069Z" fill="#D64767"/>
<path d="M22.1479 23.9167C22.1966 22.4097 22.8781 21.3403 24.1924 20.7083C25.5066 20.0764 26.8209 20.1736 27.9891 21.0972C28.3785 21.3889 28.6219 21.3889 29.06 21.0972C31.4938 19.2986 34.7064 20.7083 34.9985 23.7222C35.1445 25.0833 34.4144 26.0556 33.4409 26.9306C32.0292 28.1458 30.6176 29.3611 29.2547 30.6736C28.6706 31.257 28.5246 31.2083 27.9404 30.7222C26.5775 29.507 25.2146 28.2917 23.8029 27.125C22.6834 26.1042 22.1479 25.0833 22.1479 23.9167ZM25.75 20.9514C24.6791 21.0486 23.7543 21.4861 23.1702 22.507C22.3913 23.9167 22.7807 25.375 24.095 26.4931C25.4579 27.6597 26.8696 28.8264 28.1838 30.0417C28.5246 30.3333 28.6706 30.3333 28.9626 30.0417C29.7415 29.3125 30.569 28.632 31.2991 27.9028C32.0779 27.1736 33.0028 26.5903 33.6356 25.7153C34.6578 24.4028 34.4144 22.6042 33.1001 21.5833C31.7372 20.5625 29.8388 20.8056 28.8653 22.1667C28.5732 22.6042 28.3785 22.6042 28.0865 22.2153C27.551 21.3403 26.7235 21.0486 25.75 20.9514Z" fill="#D64767"/>
</svg>
