<svg width="57" height="56" viewBox="0 0 57 56" fill="none" xmlns="http://www.w3.org/2000/svg">
<path d="M21.4176 18.3264C19.7139 17.2083 18.1076 16.1389 16.5013 15.0694C15.9658 14.7292 15.4791 14.3403 15.9658 13.6597C16.3552 13.125 16.9393 13.3194 17.3288 13.5625C18.9351 14.4861 20.4927 15.4583 22.0504 16.4792C23.2673 17.3056 24.4842 17.9861 26.4799 17.3542C25.0683 16.3819 23.8514 15.5556 22.6345 14.6806C22.1477 14.3403 21.2715 14 21.9043 13.125C22.3424 12.4931 23.0726 12.7361 23.5107 13.125C27.7942 16.9653 33.392 17.4514 38.6003 19.1042C44.4902 20.9514 49.5525 24.3056 53.836 28.7778C54.9556 29.9444 54.9556 30.7222 53.9334 31.9861C45.5124 42.0972 30.8608 46.5208 18.4483 40.4444C14.1648 38.3542 10.2707 35.7778 6.81467 32.4722C5.15967 30.8681 5.111 29.75 6.66864 28.0972C9.49187 25.0833 9.44319 25.0347 5.98717 22.7986C5.15967 22.2639 4.2835 21.6806 3.456 21.0972C2.87189 20.7083 1.84968 20.3681 2.53115 19.3958C3.16394 18.5694 3.94277 19.25 4.52688 19.6389C5.69511 20.3681 6.81467 21.0972 7.93423 21.8264C8.51834 22.2153 9.05378 22.5556 9.6379 22.8958C10.6114 23.4306 11.877 24.1111 12.5098 22.8472C13.0939 21.6806 11.4876 21.6319 10.8548 21.1458C9.6379 20.2222 8.32364 19.4444 7.05805 18.5694C6.57129 18.2292 6.03585 17.7917 6.47394 17.1111C6.91202 16.4306 7.54482 16.7708 8.03158 17.0625C9.68657 18.0833 11.3416 19.1528 12.9966 20.125C13.5807 20.4653 14.1648 20.8056 14.7976 21C15.4304 21.1944 16.0632 20.9514 16.3066 20.3194C16.5499 19.7361 15.9658 19.4444 15.5277 19.2014C14.2622 18.375 12.9479 17.5972 11.6823 16.7708C11.0982 16.3819 10.5627 15.8472 11.0982 15.1181C11.6336 14.4375 12.1691 14.9236 12.6558 15.2153C14.4082 16.2847 16.1119 17.3056 17.8155 18.4236C19.0324 19.2014 20.0546 19.3472 21.4176 18.3264ZM40.6934 30.6736C40.7421 24.7917 36.2152 20.0764 30.4714 19.9792C24.7762 19.8819 20.006 24.5486 19.9573 30.3333C19.9086 36.1181 24.3382 40.7847 29.9846 40.8819C35.7771 41.0278 40.6447 36.3611 40.6934 30.6736ZM22.3911 20.5625C17.7182 21.5347 14.1161 24.1597 10.6601 26.9306C6.86335 29.9931 6.91202 30.0417 10.5627 33.2986C13.9214 36.3125 19.2271 39.1319 21.7096 39.3264C16.3552 33.3472 16.5013 28.5347 22.3911 20.5625ZM38.4056 40.0069C43.0299 38.8403 46.1452 36.4583 49.2604 33.9792C53.3493 30.6736 53.4466 30.625 49.5038 27.3681C46.5346 24.9375 43.3219 22.7014 38.9411 21.3403C43.906 27.8542 43.76 33.7361 38.4056 40.0069Z" fill="#D64767"/>
<path d="M30.4225 36.6042C26.6745 36.6528 23.8999 33.9792 23.8999 30.3333C23.8999 26.8333 26.8692 23.8195 30.3252 23.8195C33.7325 23.8195 36.7991 26.882 36.7505 30.3333C36.7505 33.7847 33.9272 36.6042 30.4225 36.6042ZM34.9008 30.3333C34.9008 27.9028 32.8563 25.9097 30.3252 25.8611C27.8427 25.8611 25.7496 27.9028 25.7496 30.2847C25.7496 32.7639 27.8427 34.8056 30.2765 34.757C32.8077 34.757 34.9008 32.7153 34.9008 30.3333Z" fill="#D64767"/>
</svg>
