<svg width="57" height="56" viewBox="0 0 57 56" fill="none" xmlns="http://www.w3.org/2000/svg">
<path d="M51.0613 31.1597C49.601 29.75 47.6539 28.875 45.5122 28.7292C47.2159 27.0278 48.2381 24.5972 47.946 21.9236C47.5566 17.8403 44.1493 14.6319 40.0604 14.3889C35.1928 14.0972 31.1527 17.9861 31.1527 22.75C31.1527 25.0833 32.1262 27.1736 33.6352 28.7292H24.6787C26.3824 27.0278 27.4046 24.5972 27.1125 21.9236C26.7231 17.8403 23.3158 14.6319 19.227 14.3889C14.3593 14.0972 10.3192 17.9861 10.3192 22.75C10.3192 25.0833 11.2927 27.1736 12.8504 28.7292C8.22611 28.875 4.47803 32.6667 4.47803 37.3333V51.7222H25.1168H53.6898V49.2917V37.3819C53.7385 34.9514 52.7163 32.7153 51.0613 31.1597ZM33.7325 23.5764C33.2457 19.6875 36.5071 16.3819 40.4012 16.9167C43.0784 17.2569 45.2201 19.3958 45.5609 22.0694C46.0476 25.9583 42.7863 29.2639 38.8922 28.7292C36.215 28.3403 34.0732 26.2014 33.7325 23.5764ZM12.8504 23.5764C12.3636 19.6875 15.6249 16.3819 19.519 16.9167C22.1962 17.2569 24.338 19.3958 24.6787 22.0694C25.1655 25.9097 21.9042 29.1667 18.0101 28.6805C15.3329 28.3403 13.1911 26.2014 12.8504 23.5764ZM25.1655 49.3403H14.554C13.6779 49.3403 12.9477 48.6111 12.9477 47.7361V45.743C12.9477 45.0625 12.4123 44.5278 11.7308 44.5278C11.0493 44.5278 10.5139 45.0625 10.5139 45.743V47.7361C10.5139 48.6111 9.78375 49.3403 8.90757 49.3403H6.91184V37.3819C6.91184 33.9792 9.6864 31.1597 13.1424 31.1597H18.7889H27.794C26.1877 32.7153 25.1655 34.9514 25.1655 37.3819V49.3403ZM51.3047 49.3403H49.8444C48.9682 49.3403 48.2381 48.6111 48.2381 47.7361V45.743C48.2381 45.0625 47.7026 44.5278 47.0212 44.5278C46.3397 44.5278 45.8042 45.0625 45.8042 45.743V47.7361C45.8042 48.6111 45.0741 49.3403 44.1979 49.3403H35.3875C34.5113 49.3403 33.7812 48.6111 33.7812 47.7361V45.743C33.7812 45.0625 33.2457 44.5278 32.5643 44.5278C31.8828 44.5278 31.3474 45.0625 31.3474 45.743V47.7361C31.3474 48.6111 30.6172 49.3403 29.741 49.3403H27.5993V37.3819C27.5993 33.9792 30.3738 31.1597 33.8299 31.1597H39.671H45.1228C48.5301 31.1597 51.3533 33.9305 51.3533 37.3819V49.3403H51.3047Z" fill="#D64767"/>
<path d="M27.7939 2.96527C27.7939 2.96527 27.0637 6.90277 21.6606 9.09027C21.6606 9.09027 27.0637 11.2778 27.7939 15.2153C27.7939 15.2153 29.3028 10.3055 33.9271 9.09027C33.9271 9.09027 29.6922 7.68055 27.7939 2.96527ZM27.8425 11.5694C27.0637 10.6458 26.1389 9.86805 25.214 9.18749C26.3336 8.3611 27.2097 7.43749 27.8912 6.6111C28.67 7.58333 29.4975 8.3611 30.2764 8.99305C29.3028 9.81944 28.524 10.6944 27.8425 11.5694Z" fill="#D64767"/>
</svg>
