<svg width="57" height="56" viewBox="0 0 57 56" fill="none" xmlns="http://www.w3.org/2000/svg">
<path d="M28.4269 52.1598C27.9888 52.1598 27.5507 52.1598 27.1126 52.1598C25.555 52.1112 25.1656 51.8195 25.1656 50.2639C25.1656 49.4862 24.8735 49.1945 24.0947 49.1945C22.8291 49.1945 21.4175 48.8056 21.5149 47.4445C21.6122 45.7917 21.7096 44.2362 21.4662 42.5834C21.4175 42.0487 21.9043 41.6598 22.2937 41.3195C23.754 40.2014 23.5593 37.3334 22.0016 36.4098C17.426 33.7362 14.8462 29.75 14.8462 24.4514C14.8462 18.9584 17.426 14.7778 22.3423 12.2014C31.0067 7.63199 41.9589 14.1945 42.0563 23.9653C42.1049 29.5556 39.6224 33.6875 34.8035 36.4584C34.1707 36.7987 33.9273 37.1875 33.976 37.8681C34.0247 38.5487 34.0247 39.2292 33.976 39.9098C33.976 40.5417 34.0733 41.0278 34.6575 41.4653C35.4363 42.0973 35.6797 43.0209 35.1442 43.9445C34.7548 44.625 34.8522 45.257 35.0956 45.9375C35.7283 47.6389 35.1442 48.8542 33.3432 49.0487C32.2723 49.1459 31.7369 49.3889 31.8342 50.6042C31.8829 51.5278 31.2501 52.0625 30.2766 52.1112C29.6438 52.1598 29.0597 52.1598 28.4269 52.1598ZM28.4269 40.8334C28.7676 40.8334 29.0597 40.8334 29.4004 40.8334C32.5644 40.8334 32.6131 40.8334 32.5644 37.6737C32.5157 36.4584 32.9051 35.8264 34.0247 35.2917C41.5208 31.5 42.9811 21.3403 36.8966 15.5556C31.8342 10.7431 23.5106 11.1806 19.1784 16.4306C14.4568 22.1667 15.5277 30.382 21.4662 34.5625C22.4397 35.2431 23.9973 35.3403 24.4354 36.4098C24.8735 37.4306 24.5815 38.7917 24.5815 40.007C24.5815 40.6389 24.8248 40.882 25.4576 40.882C26.4312 40.8334 27.4534 40.8334 28.4269 40.8334ZM28.3295 44.2848C29.8385 44.2848 31.3961 44.2848 32.9051 44.2848C33.4892 44.2848 33.976 44.1389 33.976 43.4098C33.976 42.6806 33.6353 42.2917 32.8564 42.2917C29.8385 42.2917 26.8206 42.2917 23.8026 42.2917C23.1212 42.2917 22.5857 42.5834 22.6344 43.3612C22.6831 44.0903 23.2185 44.2362 23.8026 44.2362C25.3603 44.2848 26.8692 44.2848 28.3295 44.2848ZM28.3782 47.7848C29.8385 47.7848 31.2988 47.7848 32.7104 47.7848C33.3919 47.7848 34.0247 47.5903 33.976 46.7153C33.9273 45.8889 33.3432 45.7917 32.7104 45.7917C29.7898 45.7917 26.9179 45.7917 23.9973 45.7917C23.3159 45.7917 22.6344 45.8403 22.6831 46.7639C22.6831 47.6389 23.3646 47.7848 24.046 47.7848C25.5063 47.8334 26.9179 47.7848 28.3782 47.7848ZM28.3782 50.75C28.865 50.75 29.3517 50.75 29.8385 50.75C30.3253 50.75 30.4226 50.4098 30.4226 49.9723C30.4226 49.5834 30.3253 49.2431 29.8385 49.2431C28.9137 49.2431 27.9888 49.2431 27.064 49.2431C26.5772 49.2431 26.4798 49.5834 26.4798 49.9723C26.4798 50.3612 26.5772 50.7014 27.064 50.75C27.502 50.75 27.9401 50.75 28.3782 50.75Z" fill="#D64767"/>
<path d="M18.8862 11.4236C18.5454 11.4236 18.3507 11.2778 18.156 11.0834C17.5719 10.3056 16.9878 9.5278 16.4037 8.75003C16.1603 8.40975 16.1116 8.02086 16.4524 7.7778C16.8418 7.48614 17.2312 7.58336 17.5232 7.97225C18.1074 8.75003 18.7402 9.47919 19.2756 10.3056C19.665 10.8403 19.519 11.3264 18.8862 11.4236Z" fill="#D64767"/>
<path d="M45.8042 20.4167C45.1227 20.3681 44.6847 20.3681 44.1979 20.3195C43.8572 20.2708 43.6138 20.0764 43.6138 19.6875C43.6138 19.2986 43.8572 19.1042 44.1979 19.0556C45.2688 19.007 46.3396 19.007 47.4105 19.007C47.7513 19.007 47.9946 19.25 47.9946 19.6389C47.9946 20.0278 47.7513 20.2222 47.3619 20.2222C46.7777 20.2708 46.1936 20.3681 45.8042 20.4167Z" fill="#D64767"/>
<path d="M29.2056 6.07641C29.2056 6.61113 29.2056 7.14585 29.2056 7.63196C29.2056 7.92363 29.0596 8.16669 28.7189 8.2153C28.3295 8.26391 28.0861 8.06946 27.9887 7.72919C27.7453 6.61113 27.794 5.49308 27.9401 4.37502C27.9887 4.03474 28.2321 3.79169 28.6215 3.79169C29.0109 3.88891 29.2056 4.18058 29.2056 4.52085C29.2056 5.05558 29.2056 5.5903 29.2056 6.07641Z" fill="#D64767"/>
<path d="M40.9368 8.36113C40.9368 8.84724 39.0384 11.4236 38.6003 11.5695C38.3569 11.6667 38.1135 11.6667 37.9188 11.4236C37.7241 11.2292 37.6754 10.9375 37.7728 10.7431C38.4056 9.72224 39.0384 8.65279 39.9632 7.92362C40.3526 7.68057 40.8394 7.8264 40.9368 8.36113Z" fill="#D64767"/>
<path d="M11.3416 19.007C11.6336 19.007 11.9257 19.007 12.1691 19.007C12.6558 19.0556 13.3373 18.8611 13.386 19.6389C13.4346 20.3195 12.7532 20.2708 12.3151 20.3195C11.4876 20.3681 10.6601 20.3681 9.78392 20.3681C9.39451 20.3681 9.05378 20.2222 9.0051 19.7847C8.95643 19.2986 9.34584 19.0556 9.78392 19.0556C10.2707 19.007 10.8061 19.007 11.3416 19.007Z" fill="#D64767"/>
<path d="M25.8469 30.7709C24.63 31.2084 24.2406 32.8611 22.7316 32.5695C21.8554 32.375 21.3687 31.5972 20.7846 30.9653C19.0809 29.1181 21.5634 28.5347 22.0015 27.2709C21.5147 26.7847 20.8819 27.0278 20.2978 27.0278C19.1782 27.0278 18.6428 26.4931 18.5941 25.4236C18.5454 24.8889 18.5454 24.3542 18.5941 23.8681C18.6915 22.8472 19.2269 22.2153 20.3465 22.3125C20.6872 22.3125 21.0766 22.3125 21.4174 22.3125C22.1475 22.2153 22.2448 21.875 21.8068 21.3403C21.6607 21.1945 21.5634 21.0486 21.4174 20.9028C19.7624 19.1042 20.2491 17.257 22.5856 16.382C23.3644 16.0417 23.8512 16.4306 24.3379 16.9167C24.8247 17.3542 25.1168 17.9375 25.7982 18.2292C26.285 17.5 25.9929 16.7222 26.0416 15.9931C26.139 14.7778 26.5284 14.3403 27.7453 14.2917C28.086 14.2917 28.3781 14.2917 28.7188 14.2917C30.3738 14.3403 30.8119 14.7292 30.8606 16.382C30.8606 16.9653 30.7145 17.5972 31.0553 18.2292C31.7367 18.0834 32.0775 17.4514 32.5156 17.0625C33.2944 16.3334 33.9759 16.3334 34.7547 17.0625C35.0467 17.3542 35.3388 17.6459 35.6308 17.9375C36.7504 19.1042 36.7504 19.5417 35.5822 20.757C35.3875 20.9514 35.1928 21.1459 34.9981 21.3889C34.6086 21.9236 34.6086 22.2639 35.3875 22.3611C35.4361 22.3611 35.4848 22.3611 35.4848 22.3611C38.308 22.7014 38.308 22.7014 38.162 25.6181C38.1133 26.5903 37.6753 27.125 36.653 27.0764C36.1176 27.0764 35.6308 27.0764 35.0467 27.0764C35.0954 27.8056 35.6308 28.1459 35.9716 28.5347C37.1398 29.8472 37.1398 30.2361 35.9229 31.4514C35.7282 31.6459 35.5335 31.8403 35.3388 32.0347C34.2679 33.007 33.6351 32.9584 32.6616 31.9375C32.5642 31.8403 32.5156 31.7431 32.4182 31.6459C32.0288 31.3056 31.8341 30.625 31.2013 30.8681C30.6659 31.1111 30.9092 31.7431 30.9092 32.1806C30.8606 32.9584 31.0553 33.9792 30.2278 34.3681C29.1569 34.8542 27.94 34.757 26.8204 34.3681C26.285 34.1736 26.139 33.6389 26.139 33.0556C26.0416 32.2778 26.2363 31.5486 25.8469 30.7709ZM23.2671 31.3056C23.7538 30.7222 24.2406 30.1875 24.6787 29.6042C25.0681 29.1181 25.4575 29.0209 26.139 29.3125C27.2098 29.75 27.6966 30.3334 27.5019 31.4514C27.4532 31.7431 27.5019 32.0347 27.5019 32.2778C27.4532 33.007 27.794 33.25 28.5241 33.25C29.2542 33.25 29.5463 32.9584 29.5463 32.2292C29.4976 31.7917 29.595 31.3542 29.5463 30.9167C29.4489 30.1875 29.7897 29.7986 30.4712 29.4584C31.542 28.9236 32.2722 29.0209 32.905 29.9931C33.197 30.4306 33.5864 30.7709 33.9759 31.1111C35.6308 30.1389 35.6308 30.0417 34.4626 28.7292C34.1706 28.4375 33.9272 28.0972 33.6351 27.8542C33.2457 27.5139 33.3431 27.125 33.4404 26.6875C33.7811 25.3264 34.8033 25.6181 35.6795 25.6667C36.7991 25.7639 36.9938 25.132 36.8964 24.257C36.7504 23.2361 35.9229 23.6736 35.3875 23.5764C34.6573 23.5278 33.9272 23.7222 33.5378 22.7014C33.1484 21.6806 33.2457 21.0486 34.0732 20.3195C35.3875 19.1528 35.3388 19.1042 33.8298 17.9375C33.2944 18.1806 32.9536 18.6181 32.5642 19.0556C31.9801 19.7361 31.4447 19.9306 30.5198 19.5417C29.595 19.1528 29.6437 18.5209 29.6437 17.8403C29.6437 17.4514 29.595 17.0139 29.6437 16.625C29.6923 15.8959 29.3516 15.6042 28.6701 15.6042C27.9887 15.6042 27.5992 15.8472 27.6479 16.5764C27.6966 16.9653 27.5992 17.4028 27.6479 17.7917C27.794 18.7153 27.4532 19.25 26.5284 19.6389C25.5548 20.0764 25.1168 19.6389 24.63 19.007C24.3866 18.7153 24.0946 18.5209 23.8512 18.2292C23.3644 17.5972 22.9263 17.8403 22.4396 18.2778C21.9041 18.7639 21.9041 19.2014 22.4396 19.6875C22.829 20.0278 23.1697 20.4653 23.5591 20.8056C23.9972 21.2431 23.9485 21.632 23.8025 22.2153C23.4618 23.7222 22.4396 23.625 21.32 23.625C20.2978 23.625 19.7624 24.5 20.2978 25.2778C20.6872 25.8611 21.32 25.6181 21.8554 25.5695C22.8776 25.4722 23.4618 25.8125 23.8025 26.8334C24.1919 27.9028 23.3644 28.1945 22.9263 28.7292C21.6121 29.9445 21.5634 29.9445 23.2671 31.3056Z" fill="#D64767"/>
<path d="M31.8827 24.4514C31.8827 26.3958 30.3738 27.9028 28.4267 27.9514C26.577 27.9514 24.9707 26.2986 24.9707 24.4514C24.9707 22.5556 26.577 21 28.4754 21C30.3738 21 31.8827 22.5069 31.8827 24.4514ZM28.4754 26.5417C29.595 26.4931 30.5198 25.5694 30.4711 24.4028C30.4711 23.2847 29.4976 22.3611 28.378 22.3611C27.2585 22.3611 26.285 23.4306 26.3336 24.5C26.3823 25.5694 27.4045 26.5417 28.4754 26.5417Z" fill="#D64767"/>
</svg>
