<svg width="57" height="56" viewBox="0 0 57 56" fill="none" xmlns="http://www.w3.org/2000/svg">
<path d="M28.6705 9.47915C31.9805 9.47915 35.2905 9.47915 38.6005 9.47915C38.8925 9.47915 39.1846 9.47915 39.428 9.52776C40.3041 9.72221 40.9856 10.3542 41.083 11.1805C41.229 12.1528 40.8396 12.8819 39.8661 13.368C39.6714 13.4653 39.3793 13.4653 39.2333 13.7569C39.0386 14.243 39.2819 14.6805 39.8174 14.6805C40.7909 14.6805 41.8131 14.6805 42.7866 14.6805C44.1009 14.6805 44.0522 14.4861 43.9549 15.9444C43.7115 19.8819 42.2512 23.2847 39.428 26.1042C39.0872 26.4444 38.8439 26.7847 38.6978 27.2708C37.773 30.1875 35.972 32.375 33.2461 33.7361C32.8567 33.9305 32.662 34.2222 32.662 34.6597C32.7106 35.5347 32.662 36.4097 32.662 37.2361C32.662 38.0139 32.7106 38.0625 33.5381 38.0625C34.4143 38.0625 35.3392 38.0625 36.2153 38.0625C36.8968 38.0625 36.9455 38.1111 36.9455 38.7917C36.9455 41.125 36.9455 43.4097 36.9455 45.743C36.9455 46.4722 36.8968 46.4722 36.2153 46.4722C30.9583 46.4722 25.7012 46.4722 20.4442 46.4722C19.7141 46.4722 19.7141 46.4722 19.7141 45.743C19.7141 43.4097 19.7141 41.125 19.7141 38.7917C19.7141 38.0625 19.714 38.0139 20.4929 38.0139C21.3204 38.0139 22.1479 38.0139 22.9754 38.0139C23.9489 38.0139 23.9489 38.0139 23.9976 37.0417C23.9976 36.1667 23.9489 35.2917 23.9976 34.4653C23.9976 34.0278 23.8515 33.8819 23.5108 33.6875C21.6611 32.7153 20.2008 31.3542 19.1299 29.5555C18.6432 28.7778 18.3511 27.9514 18.0591 27.0764C17.913 26.6875 17.7183 26.3958 17.4263 26.1042C14.5544 23.2361 13.0454 19.7361 12.802 15.7014C12.7533 14.6319 12.7533 14.6319 13.7755 14.6319C14.7491 14.6319 15.7713 14.6319 16.7448 14.6319C17.0369 14.6319 17.4749 14.7778 17.5236 14.243C17.5723 13.8055 17.5236 13.5139 17.0369 13.2708C16.258 12.9305 15.7713 12.2986 15.8199 11.375C15.8686 10.4514 16.3554 9.81943 17.2316 9.52776C17.621 9.43054 18.0104 9.43054 18.4485 9.43054C22.0018 9.47915 25.3605 9.47915 28.6705 9.47915ZM28.5245 13.5139C25.5065 13.5139 22.5373 13.5139 19.5193 13.5139C18.6918 13.5139 18.6432 13.5625 18.6432 14.2917C18.6432 17.6458 18.5458 20.9514 18.6918 24.3055C18.8379 28.243 20.6876 31.1597 24.241 32.9583C28.8652 35.2917 34.609 33.4444 37.0915 28.875C37.919 27.3194 38.3084 25.6667 38.3571 23.9167C38.4058 20.8055 38.3571 17.6944 38.3571 14.5833C38.3571 14.3889 38.3571 14.1944 38.3571 14.0486C38.3571 13.7569 38.2111 13.6111 37.919 13.5625C37.6756 13.5625 37.4322 13.5625 37.1889 13.5625C34.2683 13.5139 31.3964 13.5139 28.5245 13.5139ZM28.5245 39.0833C26.2367 39.0833 23.9489 39.0833 21.6611 39.0833C20.7363 39.0833 20.7363 39.1319 20.7363 40.0069C20.7363 41.5625 20.7363 43.0694 20.7363 44.625C20.7363 45.5 20.7849 45.5972 21.6611 45.5972C26.188 45.5972 30.7149 45.5972 35.2905 45.5972C36.118 45.5972 36.1667 45.5972 36.1667 44.6736C36.1667 43.118 36.1667 41.6111 36.1667 40.0555C36.1667 39.0833 36.1667 39.0833 35.1931 39.0833C32.954 39.0833 30.7149 39.0833 28.5245 39.0833ZM28.5731 12.5903C31.7858 12.5903 34.9984 12.5903 38.2111 12.5903C38.6005 12.5903 38.9412 12.5903 39.3306 12.493C39.9147 12.3472 40.2068 12.0069 40.2068 11.4722C40.2068 10.9375 39.9147 10.5972 39.3306 10.4514C39.0386 10.4028 38.6978 10.3542 38.4058 10.3542C31.8831 10.3542 25.3605 10.3542 18.8379 10.3542C18.4971 10.3542 18.1564 10.3542 17.8157 10.4514C17.2802 10.5972 16.9882 10.9375 16.9882 11.4236C16.9882 11.9097 17.2802 12.3472 17.8157 12.493C18.1077 12.5417 18.4485 12.5417 18.7405 12.5417C22.0018 12.5903 25.2632 12.5903 28.5731 12.5903ZM17.767 24.743C17.767 21.875 17.767 19.0069 17.767 16.1389C17.767 15.75 17.5723 15.6042 17.1829 15.6042C16.3067 15.6042 15.3819 15.6042 14.5057 15.6042C14.0189 15.6042 13.9702 15.8472 13.9702 16.2361C14.1649 19.25 15.2358 21.875 17.0369 24.2083C17.2316 24.4514 17.3776 24.6944 17.767 24.743ZM39.2333 20.2222C39.2333 21.5347 39.2333 22.7986 39.2333 24.1111C39.2333 24.3055 39.0872 24.5972 39.3793 24.6944C39.6227 24.743 39.72 24.4514 39.8661 24.3055C40.7422 23.2847 41.375 22.118 41.9105 20.9028C42.5433 19.4444 42.9813 17.9375 43.03 16.3333C43.03 15.6528 42.9813 15.6042 42.2999 15.5555C41.5211 15.5555 40.7422 15.5555 39.9634 15.5555C39.2819 15.5555 39.2333 15.6042 39.2333 16.3333C39.2333 17.6458 39.2333 18.9583 39.2333 20.2222ZM28.4758 38.0625C29.352 38.0625 30.2768 38.0625 31.153 38.0625C31.5911 38.0625 31.8345 37.9167 31.8345 37.4305C31.8345 36.6042 31.8345 35.8264 31.8345 35C31.8345 34.5625 31.6398 34.4167 31.2017 34.5139C29.352 35 27.5509 35 25.7012 34.5139C25.2145 34.368 25.0684 34.5625 25.0684 35C25.0684 35.7778 25.0684 36.5555 25.0684 37.3333C25.0684 38.0139 25.1171 38.0139 25.8473 38.0625C26.7721 38.0625 27.5996 38.0625 28.4758 38.0625Z" fill="#D64767"/>
<path d="M23.9001 28C23.9487 27.8055 23.9974 27.5625 24.0948 27.368C24.3382 26.5903 24.5815 25.8125 24.8736 25.0833C25.117 24.5 24.9709 24.1597 24.4842 23.868C23.9487 23.5278 23.4133 23.1389 22.9265 22.75C22.6345 22.5069 22.3424 22.3125 22.0504 22.0694C21.807 21.8264 21.6123 21.5347 21.7583 21.1458C21.9043 20.7569 22.1964 20.5139 22.6832 20.5139C23.5593 20.5139 24.4355 20.5139 25.263 20.5139C26.3339 20.5139 26.3339 20.5139 26.6746 19.493C26.8693 18.8611 27.1127 18.2292 27.3074 17.5486C27.3561 17.4028 27.4048 17.2569 27.4534 17.1111C27.6481 16.6736 27.8915 16.2361 28.427 16.2847C28.9137 16.3333 29.1571 16.6736 29.3031 17.1111C29.5952 18.0347 29.9359 18.9097 30.1793 19.8333C30.3253 20.3194 30.5687 20.5139 31.1042 20.5139C31.883 20.4653 32.7105 20.5139 33.4893 20.5139C33.684 20.5139 33.9274 20.5139 34.1221 20.5139C34.5115 20.5625 34.8036 20.7569 34.9496 21.1458C35.1443 21.5833 34.9496 21.875 34.6575 22.118C34.3168 22.4097 33.9761 22.6528 33.6353 22.8958C33.1972 23.2361 32.7592 23.5278 32.2724 23.868C31.5909 24.3542 31.5909 24.3542 31.883 25.2292C32.175 26.0555 32.4184 26.8819 32.6618 27.7083C32.8078 28.1944 32.8565 28.6319 32.4184 28.9236C31.9317 29.2639 31.5423 29.118 31.1528 28.8264C30.374 28.2917 29.5952 27.7083 28.8164 27.125C28.427 26.8333 28.1349 26.8333 27.7455 27.125C26.918 27.7569 26.1392 28.3403 25.263 28.9236C24.6789 29.3125 23.9001 28.875 23.9001 28ZM28.427 17.5C28.2323 17.6944 28.1836 17.8889 28.0862 18.0833C27.8429 18.8611 27.5995 19.6875 27.3561 20.4653C27.1614 21.0486 26.8206 21.3403 26.1879 21.2917C25.3117 21.2917 24.4355 21.2917 23.608 21.2917C23.4133 21.2917 23.1699 21.243 23.1212 21.3889C23.0239 21.6319 23.316 21.7292 23.462 21.875C24.0461 22.3125 24.6302 22.7014 25.1657 23.1389C26.1392 23.868 26.1879 24.0139 25.7984 25.1805C25.5551 25.9097 25.3117 26.6389 25.117 27.368C25.0683 27.5139 24.8736 27.7083 25.1657 27.8542C25.9932 27.2708 26.8206 26.6875 27.6481 26.1042C28.1836 25.6667 28.6704 25.7153 29.1571 26.1042C29.5465 26.3472 29.8873 26.6875 30.2767 26.9305C30.7634 27.2708 31.2015 27.6111 31.7856 27.8542C31.5909 26.8819 31.2989 26.0069 31.0068 25.1319C30.6661 24.0625 30.7148 23.868 31.6396 23.1875C32.3211 22.7014 33.0025 22.2153 33.6353 21.7292C33.684 21.6805 33.7814 21.5833 33.7814 21.5347C33.7814 21.3889 33.6353 21.3403 33.538 21.3403C32.8078 21.3403 32.1264 21.3403 31.3962 21.3403C29.7899 21.3403 29.7899 21.3403 29.2545 19.7847C29.0111 19.0069 28.8651 18.2292 28.427 17.5Z" fill="#D64767"/>
</svg>
