<?xml version="1.0" standalone="no"?>
<!DOCTYPE svg PUBLIC "-//W3C//DTD SVG 20010904//EN"
 "http://www.w3.org/TR/2001/REC-SVG-20010904/DTD/svg10.dtd">
<svg version="1.0" xmlns="http://www.w3.org/2000/svg"
 width="653.000000pt" height="653.000000pt" viewBox="0 0 653.000000 653.000000"
 preserveAspectRatio="xMidYMid meet">
<metadata>
Created by potrace 1.14, written by Peter Selinger 2001-2017
</metadata>
<g transform="translate(0.000000,653.000000) scale(0.100000,-0.100000)"
fill="#000000" stroke="none">
<path d="M476 6514 c-9 -8 -16 -17 -16 -19 0 -6 39 -103 59 -149 11 -23 70
-158 134 -301 63 -143 124 -280 135 -305 11 -25 60 -133 108 -240 47 -107 97
-219 110 -247 46 -102 76 -169 105 -231 16 -35 29 -65 29 -67 0 -2 23 -52 51
-112 28 -59 69 -148 92 -198 63 -135 219 -440 276 -539 75 -130 326 -468 481
-647 63 -73 271 -283 345 -349 28 -24 53 -51 56 -60 4 -9 -29 -84 -79 -180
-173 -335 -215 -434 -332 -775 -40 -115 -92 -254 -115 -308 -132 -300 -420
-698 -800 -1105 -172 -184 -534 -532 -654 -629 -22 -18 -22 -20 -7 -35 15 -15
25 -12 134 49 172 97 355 212 499 315 71 51 133 97 139 102 6 6 29 25 50 41
103 80 227 195 415 384 204 204 289 271 326 257 13 -5 15 -18 9 -84 -8 -91
-37 -224 -65 -304 -18 -54 -19 -58 -3 -67 18 -10 20 -9 137 124 33 38 69 78
80 91 11 12 31 35 44 50 34 40 163 187 175 200 6 6 40 45 76 85 106 120 329
341 410 405 144 115 228 158 459 238 269 94 465 188 648 312 120 82 246 196
312 284 14 19 29 37 32 40 13 11 64 99 101 173 22 44 68 167 104 275 36 109
69 206 73 217 98 234 162 335 295 469 121 123 156 146 393 265 206 103 202
102 398 136 17 3 64 12 105 20 41 8 91 17 110 20 32 5 94 17 113 21 4 1 19 2
35 3 42 2 13 14 -138 55 -159 43 -205 56 -323 91 l-87 26 -29 64 c-82 179
-228 332 -393 408 -211 98 -512 94 -802 -10 -37 -14 -72 -21 -76 -16 -4 4 -10
53 -14 107 -7 108 -20 203 -41 296 -3 14 -8 39 -11 55 -12 71 -82 309 -164
560 -95 288 -147 461 -153 510 -5 42 -40 47 -55 8 -85 -221 -153 -442 -183
-594 -22 -113 -27 -217 -20 -449 3 -86 0 -104 -29 -185 -64 -179 -69 -309 -21
-498 38 -144 38 -162 6 -183 -43 -28 -68 -13 -240 146 -53 48 -214 166 -295
215 -109 67 -254 135 -370 174 -102 35 -205 95 -365 215 -99 74 -126 97 -315
265 -100 90 -231 178 -380 256 -292 153 -497 303 -732 535 -75 74 -171 176
-213 225 -105 123 -111 127 -139 99z"/>
<path d="M5283 5840 c-116 -38 -187 -144 -177 -267 10 -138 110 -235 243 -236
99 0 177 49 227 143 27 51 26 181 -3 235 -57 108 -180 161 -290 125z m142 -51
c132 -44 173 -235 73 -342 -72 -77 -195 -84 -275 -16 -133 113 -78 331 92 369
33 7 64 4 110 -11z"/>
<path d="M5259 5723 c-1 -10 -1 -235 0 -245 1 -5 10 -8 21 -8 17 0 20 7 20 39
0 38 1 39 33 39 28 0 37 -6 58 -39 16 -27 31 -39 46 -39 29 0 29 3 -2 48 -21
30 -23 39 -12 47 43 32 45 106 3 141 -23 20 -38 24 -97 24 -38 0 -69 -3 -70
-7z m147 -58 c15 -23 15 -27 1 -49 -15 -22 -67 -38 -96 -28 -6 2 -11 26 -11
53 l0 49 45 0 c36 0 47 -4 61 -25z"/>
</g>
</svg>
